<svg xmlns="http://www.w3.org/2000/svg" width="287.03" height="44.84"><path data-name="story/title.svg" d="M-.01 30.83l1.94 13.84h1.42a4.355 4.355 0 01.53-1.49 1.6 1.6 0 011.54-.7 24.14 24.14 0 013.76 1.14 19.22 19.22 0 006.3 1.15 14.29 14.29 0 009.85-3.43 10.97 10.97 0 003.86-8.54 10.414 10.414 0 00-2.17-6.6 29.514 29.514 0 00-7.56-6.06l-5.71-3.53a19.688 19.688 0 01-4.72-3.77 6.414 6.414 0 01-1.52-4.29 5.258 5.258 0 011.98-4.36 7.282 7.282 0 014.65-1.57 12.009 12.009 0 016.94 2.47q3.51 2.475 5.09 8.73h1.56L26.3-.02h-1.33a4.071 4.071 0 01-.72 1.62 2.026 2.026 0 01-1.66.57 22.222 22.222 0 01-3.57-1.09 16.73 16.73 0 00-5.35-1.1A11.719 11.719 0 005 3.25a11.11 11.11 0 00-3.27 8.19 9.948 9.948 0 002.77 6.79 19.755 19.755 0 003.99 3.21l5.54 3.46a41.3 41.3 0 016.28 4.47 7.681 7.681 0 012.28 5.52 6.919 6.919 0 01-2.27 5.5 7.923 7.923 0 01-5.37 1.96 12.1 12.1 0 01-9.6-4.54 23.37 23.37 0 01-3.87-6.98H-.01zm55.14-18.88h1.59c.65-3.49 1.63-5.76 2.93-6.79S63.4 3.6 67 3.6h3.65v32.5q0 4.2-1.02 5.24c-.67.7-2.39 1.15-5.14 1.36v1.21h18.95V42.7c-2.64-.19-4.36-.58-5.14-1.18s-1.18-2.15-1.18-4.66V3.6h3.62q5.655 0 7.41 1.57 1.77 1.575 2.91 6.78h1.55L92.26.9H55.51zm68.92 10.47q0-10.275 4.05-15.19a12.412 12.412 0 019.89-4.9 12.618 12.618 0 019.79 4.73q4.125 4.725 4.13 15.36 0 10.515-4.08 15.28a12.495 12.495 0 01-19.75-.12q-4.035-4.905-4.03-15.16zm-7.37 0q0 9.9 6.13 16.22a20.271 20.271 0 0015.17 6.19 20.656 20.656 0 0014.57-5.59q6.72-6.255 6.72-16.82 0-10.41-6.5-16.66a21.816 21.816 0 00-29.55-.03q-6.54 6.285-6.54 16.69zm78.72-.79v-16a2.136 2.136 0 01.62-1.86 8.411 8.411 0 013.38-.39 16.262 16.262 0 016.57 1.11q4.635 2.055 4.64 7.7 0 5.85-5.18 7.98-3.015 1.2-10.03 1.46zm-12.18 22.28h18.06V42.7q-3.69-.315-4.78-1.28c-.73-.64-1.1-2.16-1.1-4.57V24.04l2.86-.16 16.26 20.03h10.46V42.7a8.04 8.04 0 01-3.17-.88 9.061 9.061 0 01-2.47-2.2l-13.4-16.5a17.427 17.427 0 008.59-3.42 9.124 9.124 0 003.15-7.45q0-7.23-7.1-9.92A26.572 26.572 0 00201.21.9h-17.99v1.21c2.35.19 3.86.64 4.55 1.35s1.03 2.2 1.03 4.49V36.1c0 2.7-.3 4.41-.92 5.15s-2.17 1.22-4.66 1.45v1.21zM242.87.9v1.21a6.249 6.249 0 014.32 1.95 76.624 76.624 0 016.18 8.27l8.51 12.47v11.28q0 4.245-1.06 5.31c-.71.71-2.54 1.14-5.48 1.31v1.21h19.84V42.7c-2.84-.15-4.66-.53-5.48-1.15s-1.22-2.2-1.22-4.71V24.2l9.6-14.66a23.739 23.739 0 015.42-6.26 6.579 6.579 0 013.52-1.17V.9h-14.21v1.21a11.716 11.716 0 013.05.32 1.812 1.812 0 011.49 1.84 3.955 3.955 0 01-.17.89 6.733 6.733 0 01-.75 1.52l-9.33 14.25-9.57-14.03a6.944 6.944 0 01-.85-1.63 3.6 3.6 0 01-.19-1.03 1.694 1.694 0 011.14-1.78 9.817 9.817 0 013.43-.35V.9h-18.19z" fill-rule="evenodd"/></svg>