<svg xmlns="http://www.w3.org/2000/svg" width="199.812" height="103.59"><path data-name="staff/name1.svg" d="M16.912 12.64c-.066-1.17-.177-3.41-.177-4.6 0-.9 0-.97.419-1.23a.782.782 0 00.484-.49c0-.42-1.629-1.34-1.871-1.34a1.439 1.439 0 00-.748.68.321.321 0 01-.286.13h-3.608a17.867 17.867 0 001.166-1.8.685.685 0 01.462-.38.554.554 0 00.55-.37c0-.2-.264-.33-1.012-.55h6.667c.374 0 .484-.13.484-.26a4.418 4.418 0 00-2.068-1.9.3.3 0 00-.132-.02c-.242 0-.418.22-1.277 1.43a.492.492 0 01-.374.2H5.602l-.066-.04A9.382 9.382 0 002.962 1c-.044 0-.044.02-.044.04a.666.666 0 00.022.18 34.052 34.052 0 01.418 5.81c0 4.35-.727 8.88-3.015 11.72a1.225 1.225 0 00-.352.58c0 .02 0 .04.044.04a1.963 1.963 0 00.638-.42c3.653-3.15 4.4-8.38 4.4-13.38 0-.46 0-.92-.022-1.38 0-.2-.022-.51-.022-.62a.576.576 0 01.33-.64l.264-.24h5.127a7.457 7.457 0 01.044 1.01 19.509 19.509 0 01-.242 2.09H9.077l-.132-.08a8.225 8.225 0 00-2.134-.93c-.022 0-.044.02-.044.07a1.126 1.126 0 01.022.13 17.439 17.439 0 01.264 2.57c0 .95-.022 3.68-.176 5.44v.06a.649.649 0 00.726.64.923.923 0 00.968-.72v-.66h2.641a26.85 26.85 0 01.132 3.52c0 .52 0 1.07-.022 1.49-.022.6-.374.86-1.3.86a13.861 13.861 0 01-2.223-.26 1.3 1.3 0 00-.242-.02c-.044 0-.066 0-.066.02 0 .17 2.068 1.05 2.421 1.63a.464.464 0 00.418.3c.044 0 2.618-.13 2.618-2.33 0-.44-.044-1.03-.066-1.47-.022-.6-.044-1.13-.044-1.61 0-1.34.066-1.41.418-1.56a.488.488 0 00.33-.29.378.378 0 00-.33-.24l-.176-.04h2.112v.5a.671.671 0 00.748.66.866.866 0 00.969-.77v-.06zm-1.673-3.46c0 .86-.022 1.78-.022 2.6H8.55v-2.6h6.689zm-.352-2.81a.267.267 0 01.308.26c.022.46.044 1.19.044 2.02H8.55c0-1.93 0-2 .308-2.17l.154-.11h5.875zm-5.259 9.37c0-.46-1.782-1.74-1.936-1.74-.066 0-.088.09-.11.2-.352 1.05-3.014 3.72-5.061 4.6a.72.72 0 00-.418.28c0 .03.044.05.132.05a13.967 13.967 0 006.139-3 .59.59 0 01.374-.22.464.464 0 01.176.03 2.244 2.244 0 00.308.04c.262 0 .394-.11.394-.24zm9.066 2.97a.988.988 0 00.88-1.06c0-2.15-5.039-3.21-5.369-3.21-.066 0-.088.02-.088.04a.3.3 0 00.154.18 13.085 13.085 0 013.345 3.26 1.418 1.418 0 001.076.79zM43.906 3.57a.3.3 0 00-.132-.02 4.139 4.139 0 00-1.3 1.43.474.474 0 01-.353.22h-5.786a19.5 19.5 0 001.584-2.33.709.709 0 01.616-.49c.528-.11.77-.24.77-.44 0-.44-2.112-1.54-2.442-1.54-.088 0-.088.07-.11.2-.308 2.29-2.971 6.62-5.215 8.87.066-2.75.088-2.86.44-3.02a.574.574 0 00.418-.41 1.288 1.288 0 00-1.034-.51 27.5 27.5 0 001.65-2.55.773.773 0 01.594-.51c.484-.09.7-.24.7-.42 0-.55-2.42-1.49-2.508-1.49-.066 0-.044.06-.066.19-.374 2.82-4 8.3-5.985 10.1a1.149 1.149 0 00-.374.42c0 .02.022.02.044.02.154 0 2.09-.94 4.555-3.96 0 .49.022.99.022 1.35-.044 2.92-.2 7.39-.462 10.29v.14a.726.726 0 00.77.81 1.075 1.075 0 001.122-.97v-.04c-.022-.64-.022-1.41-.022-2.2 0-2.2.044-4.82.11-6.96a16.329 16.329 0 004.4-4H37.1c.066.73.088 1.83.088 2.27.022.74.022 1.76.022 2.9 0 2.66-.044 5.98-.22 8.16v.11a.714.714 0 00.77.77 1.008 1.008 0 001.078-.92v-.02c-.044-1.35-.088-3.02-.11-4.71h5.684c.352 0 .44-.13.44-.29 0-.61-1.65-1.78-2-1.78a3.663 3.663 0 00-1.189 1.3.433.433 0 01-.33.22h-2.6c-.022-1.26-.022-2.51-.022-3.59h5.611c.352 0 .44-.13.44-.28 0-.55-1.584-1.79-1.98-1.79a3.663 3.663 0 00-1.189 1.3.433.433 0 01-.33.22h-2.551c0-2.92.022-3.08.352-3.21a.561.561 0 00.418-.42.292.292 0 00-.22-.24h6.183c.352 0 .462-.13.462-.29-.001-.46-1.277-1.6-2.003-1.89zm19.689 6.45a2.091 2.091 0 10-2.09 2.09 2.073 2.073 0 002.088-2.09zm31.4-8.12c-.088 0-.242.02-.594.64a.379.379 0 01-.286.17h-1.321l-.088-.06a8.7 8.7 0 00-2.178-1.08.035.035 0 00-.044.04 1.052 1.052 0 01.022.11 25.922 25.922 0 01.264 3.44c.022 1.49.044 3.56.044 5.76 0 2.82-.044 5.85-.176 8.27v.07a.671.671 0 00.7.75.955.955 0 00.99-.9l-.066-3.94a3.173 3.173 0 011.078 1.03.4.4 0 00.419.31 2.39 2.39 0 002.244-2.25v-.08c-.022-.58-.066-1.63-.066-2.14a331.32 331.32 0 01-.044-5.15c0-1.1 0-2.02.022-2.48a.6.6 0 01.44-.73.673.673 0 00.462-.51c-.005-.46-1.605-1.27-1.829-1.27zM81.947.91a1.836 1.836 0 00-.638.68.363.363 0 01-.286.18h-.931c-.022 0-.022-.03-.044-.03a8.489 8.489 0 00-2.069-.88c-.022 0-.022 0-.022.05a.578.578 0 00.022.15 21.438 21.438 0 01.286 2.86c.044 1.21.088 4.01.088 5.33 0 3.78-.242 8.14-1.782 10.23a1.325 1.325 0 00-.264.46.055.055 0 00.044.05c.286 0 2.86-1.92 3.3-8.32h1.76c0 2.09-.044 4.02-.066 5.12-.022.55-.11.95-1.122.95a7.6 7.6 0 01-1.541-.18.678.678 0 00-.176-.02c-.066 0-.088.02-.088.05 0 .17 1.7 1.05 1.915 1.52a.358.358 0 00.374.28 2.233 2.233 0 002.134-2.24v-.09c-.022-.35-.066-.88-.066-1.3-.044-1.8-.088-5.81-.088-8.84 0-3.97.022-4.01.374-4.21a.665.665 0 00.418-.5c.001-.47-1.319-1.3-1.539-1.3zm7.085 6.82a2.313 2.313 0 00-.946 1.06.366.366 0 01-.286.17h-.462c-.022-.66-.022-2.11-.022-3.47h2.53a.321.321 0 00.4-.29c0-.64-1.408-1.48-1.584-1.48a2.922 2.922 0 00-.858 1.04.346.346 0 01-.242.2h-.25c0-1.01 0-1.9.022-2.25.022-.77.11-.68.462-.86a.656.656 0 00.44-.41c0-.55-2.509-.84-2.575-.84-.022 0-.044.02-.044.07a.4.4 0 00.022.13 10.739 10.739 0 01.242 2.51v1.63a18.389 18.389 0 01-2.618-.31 1.588 1.588 0 00.924 1.05h.044c.55-.08 1.144-.15 1.65-.17v3.45a16.68 16.68 0 01-3.036-.31 1.553 1.553 0 00.968 1.06h.022c.638-.09 1.166-.18 1.694-.2a30.429 30.429 0 01-.814 4.95l-.352.09a5.052 5.052 0 01-1.232.18c-.11 0-.154 0-.154.06 0 .16.792 1.67 1.144 1.67a1.248 1.248 0 00.33-.35 31.21 31.21 0 003.983-2.35 8.05 8.05 0 01.374 1.01.993.993 0 00.814.92.917.917 0 00.77-1.03c0-1.67-2.838-3.17-3.344-3.17a.02.02 0 00-.022.02.463.463 0 00.132.22 9.741 9.741 0 011.078 1.61 27.63 27.63 0 01-2.817.95 36.256 36.256 0 001.519-3.77.5.5 0 01.418-.37.543.543 0 00.462-.35.331.331 0 00-.242-.27c-.022 0-.044-.04-.066-.04h2.684c.308 0 .4-.13.4-.29-.007-.5-1.415-1.47-1.569-1.47zm5.413 6.14a.916.916 0 01-1.145.94 6.423 6.423 0 01-1.034-.11c-.022-1.91-.022-3.85-.022-5.65s0-3.48.022-4.82c0-.62.044-.68.264-.84l.132-.08h1.5a.247.247 0 01.286.28c.022.86.044 3.79.044 6.38-.01 1.65-.032 3.17-.054 3.9zM81.397 6.54h-1.672c0-1.1-.022-2.22-.022-3.04v-.55a.57.57 0 01.242-.52.38.38 0 01.11-.11h1.056a.209.209 0 01.242.24c.015.72.037 2.22.037 3.98zm.022 4.58h-1.716c.022-.57.044-1.15.044-1.72 0-.59-.022-1.41-.022-2.29h1.672c-.007 1.28.015 2.67.015 4.01zm41.582 3.69c-4.092-1.4-7.7-5.56-9.395-8.82h7.591c.374 0 .484-.13.484-.26 0-.53-1.606-1.85-2.09-2.03a.3.3 0 00-.132-.02c-.22 0-.308.04-1.321 1.56a.458.458 0 01-.374.2h-4.466c.022-1.45.044-2.57.11-3.19.066-.57.044-.57.44-.79a.8.8 0 00.528-.53c0-.53-2.575-.92-2.9-.92a.056.056 0 00-.066.06.454.454 0 00.022.16 31.411 31.411 0 01.286 5.21h-1.156c-1.276 0-5.1-.09-7.371-.35a1.645 1.645 0 00.99 1.14h.022c1.959-.19 5.039-.24 6.271-.24h.462a28.9 28.9 0 01-8.647 10.56 1.143 1.143 0 00-.418.38c0 .02.022.02.044.02.506 0 6.293-2.6 9.813-8.91 0 1.87-.022 4-.066 5.98a28.868 28.868 0 01-4-.24 1.188 1.188 0 00.858.97c.726-.09 2.244-.16 3.146-.18-.044 1.72-.11 3.3-.2 4.56v.09a.744.744 0 00.837.77 1.081 1.081 0 001.144-.91v-.02c-.044-1.34-.088-2.88-.11-4.49h3.19c.33 0 .44-.13.44-.28a3.969 3.969 0 00-1.826-1.72c-.132 0-.176.07-.946 1.21a.506.506 0 01-.418.24h-.44c-.044-2.24-.066-4.6-.066-6.62V6.1c1.562 5.15 5.963 9.86 6.733 9.86a.517.517 0 00.308-.13c.726-.6 2.838-.73 2.838-.93a.29.29 0 00-.156-.09zm17.158-4.79a2.09 2.09 0 10-2.089 2.09 2.072 2.072 0 002.082-2.09zm31.29 7.02c-.22 0-.36.19-1.08 1.41a.488.488 0 01-.38.19h-.5c-.02-.92-.07-1.78-.07-2.55 0-1.17 0-1.36.44-1.61a.664.664 0 00.42-.48c0-.46-1.63-1.28-1.8-1.28a.315.315 0 00-.22.14 4.906 4.906 0 00-.49.52.291.291 0 01-.26.14h-7.81l-.11-.07a9.776 9.776 0 00-2.12-.92c-.04 0-.04 0-.04.04a.4.4 0 00.02.13 19.378 19.378 0 01.27 4.03c0 .57 0 1.23-.03 1.85-1.34-.05-2.79-.16-3.91-.29a1.663 1.663 0 001.03 1.15h.02c1.98-.2 4.8-.25 6.01-.25h12.12c.38 0 .49-.11.49-.24a3.889 3.889 0 00-2.007-1.91zm-8.61-7.11c-.26 0-.42.2-.97.95a.378.378 0 01-.33.15h-1.34c0-2.05 0-2.05.29-2.22a.407.407 0 00.24-.27.2.2 0 00-.13-.15h1.12v.2a.552.552 0 00.62.53.743.743 0 00.79-.62v-.04c-.05-.47-.09-1.9-.09-2.18 0-.38 0-.27.44-.53a.532.532 0 00.31-.37c0-.36-1.41-1.04-1.59-1.04a1.285 1.285 0 00-.61.51.351.351 0 01-.29.15h-1.1c0-1.72 0-1.74.29-1.87a.405.405 0 00.26-.26.18.18 0 00-.17-.18l-.2-.04h3.45c.35 0 .46-.16.46-.29a3.534 3.534 0 00-1.62-1.43c-.03 0-.07-.02-.11-.02-.25 0-.38.17-.97 1.01a.427.427 0 01-.29.18h-4l-.09-.07a12.541 12.541 0 00-2.07-.95.061.061 0 00-.06.07c0 .04.02.07.02.13a18.933 18.933 0 01.24 2.8c0 1.36-.02 5.98-.22 8.42v.07a.584.584 0 00.68.57.915.915 0 00.99-.7v-.86h7.2c.39 0 .52-.15.52-.31a2.79 2.79 0 00-1.677-1.34zm8.54-6.71c-.04 0-.11-.02-.15-.02-.27 0-.4.15-1.17 1.3a.448.448 0 01-.33.17h-2.93c.47-.75.86-1.47 1.15-2.05a.52.52 0 01.44-.41.639.639 0 00.64-.42c0-.46-2.27-1.17-2.47-1.17-.04 0-.06.02-.06.22 0 2.66-2.58 7.09-2.62 7.15a1.311 1.311 0 00-.27.51c0 .02 0 .02.02.02.14 0 1.32-.92 2.82-3.28h6.32c.37 0 .48-.13.48-.26a3.472 3.472 0 00-1.877-1.76zm-9.66 4.62h-4.95c0-.79.02-1.58.02-2.27h4.67a.223.223 0 01.26.22v2.05zm6.21 10.8h-2.01v-.68c0-3.06 0-3.23.27-3.32a.532.532 0 00.37-.35.234.234 0 00-.15-.2h1.27a.221.221 0 01.25.24c.02.44.02 1.14.02 1.94s-.007 1.65-.027 2.37zm-3.42 0h-2v-.68c0-3.06 0-3.23.27-3.32a.532.532 0 00.37-.35.234.234 0 00-.15-.2h1.47c.07.53.07 2.15.07 2.73-.007.61-.007 1.3-.037 1.82zm-3.41 0h-.17c-.38 0-.99 0-1.72-.02v-3.67c.02-.51.02-.55.29-.73.06-.04.15-.09.2-.13h1.36c.07.53.07 2.15.07 2.73-.007.61-.007 1.3-.037 1.82zm10.04-10.91a.318.318 0 00-.13-.02c-.11 0-.31.04-1.15 1.3a.4.4 0 01-.31.17h-.55a30.8 30.8 0 01-4.49-.31 1.689 1.689 0 00.93 1.06h.02a26.792 26.792 0 013.48-.2h3.65c.37 0 .46-.11.46-.22a3.782 3.782 0 00-1.917-1.78zm-12.26 3.3h-2.11V8.39h2.02a5.494 5.494 0 01.07.95c-.007.35.013 1.21.013 1.69zm0-6.03h-2.09c0-2.02 0-2.09.33-2.24l.22-.11h1.45a5.985 5.985 0 01.07.99c-.007.31.013.94.013 1.36zm35.91 13.95c-.09-1.43-.2-3.54-.2-5.13 0-1.51.04-1.54.44-1.78a.771.771 0 00.48-.55c0-.57-1.71-1.32-1.8-1.32-.22 0-.26.07-.86.73a.313.313 0 01-.28.13h-6.74a16.78 16.78 0 00-1.85-.88 1.735 1.735 0 001.65-1.69v-.05c0-.28-.06-.64-.06-.88-.02-.26-.02-.64-.02-.9a1.585 1.585 0 01.22-1.06.453.453 0 00.41-.3.184.184 0 00-.13-.16h3.35c.35 0 .44-.13.44-.26 0-.64-1.46-1.5-1.63-1.5a2.441 2.441 0 00-.9 1.06.376.376 0 01-.29.17h-1.67c0-.48-.02-1.14-.02-1.71h3.03a.325.325 0 00.4-.31 3.043 3.043 0 00-1.41-1.39.47.47 0 00-.18-.02 2.135 2.135 0 00-.79.99.349.349 0 01-.24.18h-.79v-.36c.02-.7.09-.63.44-.81a.659.659 0 00.42-.4c0-.48-2.4-.74-2.49-.74a.043.043 0 00-.04.04.4.4 0 00.02.13 9.859 9.859 0 01.22 2.11c0 .11.02 1.02.02 1.77v.52h-.57a22.718 22.718 0 01-3.76-.3 1.689 1.689 0 00.88 1.05h.02a19.438 19.438 0 012.81-.22h.82a17.294 17.294 0 01.11 2.2c0 1.39-.09 1.54-1.06 1.54a10.039 10.039 0 01-1.58-.15h-.07a11.342 11.342 0 001.28-1.39.359.359 0 01.35-.22c.33-.02.48-.13.48-.28a3.75 3.75 0 00-1.82-.99c-.07 0-.07.06-.07.17a8.374 8.374 0 01-2.99 4.23.828.828 0 00-.26.24.043.043 0 00.04.04 8.3 8.3 0 002.9-1.71 3.765 3.765 0 011.7 1.16.372.372 0 00.37.27 16.326 16.326 0 01.27 2.5c0 1.48-.03 4.07-.18 6.41v.06a.682.682 0 00.77.69.925.925 0 001.01-.75v-.02c0-.22-.02-.49-.02-.77h7.68c0 .28-.02.57-.02.83a.641.641 0 00.72.66.977.977 0 001.04-.83v-.05zm-1.52-16.92a33.254 33.254 0 01-4.49-.26 1.658 1.658 0 00.95 1.01h.02c.28-.05.57-.07.83-.09a9.408 9.408 0 001.79 3.76 12.681 12.681 0 01-5.33 3.55 1.208 1.208 0 00-.66.33.155.155 0 00.13.02 11.917 11.917 0 006.61-2.99 9.119 9.119 0 004.18 2.61.455.455 0 00.37-.19c.57-.64 2.16-1.04 2.16-1.19 0-.05-.05-.07-.18-.07a11.147 11.147 0 01-5.72-1.93 17.941 17.941 0 002.33-3.13.623.623 0 01.57-.37.541.541 0 00.47-.44c0-.42-1.21-1.13-1.43-1.21a.411.411 0 00-.16-.05 1.307 1.307 0 00-.61.51.36.36 0 01-.33.13h-1.5zm-.2 13.8c0 .66-.02 1.34-.02 1.95h-7.68c0-.61-.02-1.29-.02-1.95h7.72zm-.28-4.25a.252.252 0 01.26.26c.02.38.02.82.02 1.35h-7.74c0-.31.02-.53.02-.71a.757.757 0 01.33-.77l.17-.13h6.94zm.28 3.67h-7.74v-1.49h7.74v1.49zm1.56-12.67a.147.147 0 01.18.15 12.608 12.608 0 01-1.85 3.04 9.162 9.162 0 01-2.05-3.1c.84-.07 1.59-.09 2.23-.09h1.49zm-6.4 6.01a.786.786 0 00.75-.82c0-.99-1.32-1.54-2.75-1.58-.16 0-.24 0-.24.04a.6.6 0 00.19.18 4.575 4.575 0 011.26 1.56.951.951 0 00.783.62zM54.565 49.25c-.35 0-.55.1-2.5 2.85a.841.841 0 01-.65.45h-9.751v-5.9c0-2.7.05-2.8.9-3.2a81.414 81.414 0 008.951-2.25 2.2 2.2 0 01.5-.1 3.986 3.986 0 01.75.15 4.038 4.038 0 00.95.15q.75 0 .75-.45c0-.95-3.7-4.5-4.3-4.5a.363.363 0 00-.3.3c-.7 1.15-2.851 3.05-6.9 5.35l-.05-.05a25.018 25.018 0 00-5.55-1.9c-.05 0-.1 0-.1.05a.544.544 0 00.05.25c.8 2.35.8 8.65.8 15.35v.4c0 7.1-1.3 17.9-9.351 23.3a2.392 2.392 0 00-1.05.9c0 .05.05.05.1.05s13.5-2.55 13.8-24.6v-2.1h4.8a47.177 47.177 0 01.3 6.85c0 5.4-.15 15.35-.4 18.6v.1c0 .95.8 1.3 1.7 1.3 1.151 0 2.451-.6 2.451-1.5v-.05c-.15-4.05-.3-12.05-.3-17.5 0-6.45 0-6.45.75-6.65a1.056 1.056 0 00.85-.7.567.567 0 00-.35-.45h6.2c.75 0 1-.35 1-.65-.003-1-3.157-3.85-4.057-3.85zm-22.5 10.5c-.1 0-.5 0-2.1 2.35a1.1 1.1 0 01-.75.45h-2.9l.1-1.7c.1-1.3.25-1.15 1.1-1.55a1.2 1.2 0 00.85-.95c0-1.1-4.95-1.65-5.4-1.65-.15 0-.2 0-.2.05a2.249 2.249 0 00.1.4 22.59 22.59 0 01.4 4.2v1.2a93.592 93.592 0 01-9.951-.7c0 .55 1.25 2.4 2.05 2.4h.05c3.251-.3 5.251-.45 7.351-.45-1.4 3.5-6.85 9.85-11 12.45a1.569 1.569 0 00-.8.7.2.2 0 00.2.1 24.61 24.61 0 0012.051-8.5c-.05 3.55-.15 7.55-.35 10.7v.15a1.415 1.415 0 001.55 1.45 1.95 1.95 0 002.1-1.75V79c-.2-3.25-.3-7.85-.3-11.75a15.816 15.816 0 013.95 4 2.38 2.38 0 001.9 1.25 1.78 1.78 0 001.651-1.85c0-1.55-1.651-3.7-7.451-4h-.05c0-1 .05-2 .05-2.85h8.646c.8 0 1.05-.3 1.05-.6-.005-1-3.205-3.45-3.906-3.45zm.9-8.1a1.768 1.768 0 00-.3-.05c-.551 0-1.951 2.1-2.251 2.7a.889.889 0 01-.55.4h-3.9c1.75-2 3.35-4.15 4.3-5.35a1.083 1.083 0 011.05-.7c.951-.05 1.4-.35 1.4-.7 0-.9-4.751-2.9-5.1-2.9-.1 0-.05.15-.1.5-.1 1.65-.6 4.3-2.9 9.15h-.65a89.784 89.784 0 01-11.4-.7c0 .55 1.3 2.4 2.05 2.4h.05a84.9 84.9 0 019.2-.45h11.848c.7 0 .95-.3.95-.65-.005-.6-2.005-2.9-3.705-3.65zM31.465 40a.568.568 0 00-.4.15 11.6 11.6 0 00-1.75 2.45.851.851 0 01-.65.4h-2.2c0-3.7.1-3.75 1-4.25a1.615 1.615 0 001.1-1.1c0-1.1-5.4-1.75-5.95-1.75-.15 0-.2 0-.2.1 0 .05.05.15.1.35a30.643 30.643 0 01.45 5.4V43a73.752 73.752 0 01-8.651-.7c0 .6 1.1 2.4 1.951 2.4h.05a72.605 72.605 0 018.4-.45h9.597c.8 0 1-.35 1-.65 0-1.25-3.256-3.6-3.856-3.6zm-14.45 6.1a.175.175 0 00-.1.05 2.192 2.192 0 00.4.6 17.882 17.882 0 012.4 4.35 2.2 2.2 0 001.95 1.85 2.112 2.112 0 001.9-2.2c-.009-2.95-5.109-4.65-6.559-4.65zm100.052 10.5c-.45 0-1.3 1.2-2.35 2.95a.773.773 0 01-.6.35h-1.2c.1-2.15.15-4.15.2-5.75a1.289 1.289 0 01.9-1.5 1.616 1.616 0 001.15-1.2c0-.85-3.05-3-3.85-3a5.309 5.309 0 00-1.551 1.4.927.927 0 01-.85.4h-10c-.1-.1-3.75-2.1-4.7-2.1-.2 0-.25.1-.25.35v1c0 2.45-.45 7.5-.8 10.35-2.35-.1-5.1-.3-7.35-.6 0 .6 1.4 2.35 2.1 2.35h.05c1.65-.2 3.4-.35 5-.4a109.415 109.415 0 01-2.8 13.7 2.2 2.2 0 00-.1.5 1.274 1.274 0 001.5 1.2 2.537 2.537 0 002.5-1.65c.15-.9.35-1.85.5-2.85h13.646c-.95 3.6-2.4 4.55-4.35 4.55a26.693 26.693 0 01-4.65-.8 1.126 1.126 0 00-.35-.05c-.1 0-.15 0-.15.05 0 .4 3.95 2.6 4.45 4.35a.915.915 0 00.9.6c1.35 0 6.3-.9 7.8-8.7h7.8c.75 0 1-.25 1-.55 0-.85-2.15-3.2-3.7-3.85-.1 0-.2-.05-.35-.05-.25 0-.7.1-2.4 2.9a.937.937 0 01-.7.4h-1.45c.35-2.5.55-6.2.75-9.8h7.25c.75 0 .95-.3.95-.6 0-1.25-3.2-3.95-3.954-3.95zM91.867 40a4.229 4.229 0 00.3-1.15c0-.1 0-.15-.1-.15-.9 0-6.95 13-11.75 25.4-.75 1.95-2.251 2.15-4.2 2.2-.95.05-1.4.15-1.4.3 0 .2.4.4 1.3.6 3.151.8 3.851 2.4 3.851 4.35 0 1.35-.35 2.9-.45 4.45 0 .25-.05.45-.05.65 0 2.45 1.2 3.55 2.35 3.55 1.25 0 2.4-1.15 2.4-3.1a6.913 6.913 0 00-.45-2.3 9.7 9.7 0 01-.55-3.4c-.012-8.4 8.438-30.6 8.738-31.4zm21.252-.45c-.35 0-1.05.4-2.8 3a.937.937 0 01-.7.4H97.312l1.6-2.9a1.223 1.223 0 011-.95c1-.2 1.45-.55 1.45-.95 0-1-5.05-2.6-5.55-2.6-.15 0-.15.05-.15.5 0 3.3-3.7 12.55-6.251 16.2a2.912 2.912 0 00-.6 1.15c0 .05 0 .05.05.05.2 0 3.25-1.9 7.7-9.25h20.2c.85 0 1.1-.3 1.1-.6-.003-.85-3.303-4.05-4.749-4.05zm-3.651 21.6a80.828 80.828 0 01-1 9.8h-5.356c.4-3.3.8-6.7 1.1-9.8h5.25zm-8.35 0c-.35 3.35-.8 7-1.25 9.8h-5.1c.5-3.2 1-6.7 1.45-9.8h4.9zm8.7-8.85c-.05 1.65-.15 4.5-.3 7.6h-5.15l.55-5.65c.15-1.25.1-1.25.9-1.65a.975.975 0 00.65-.65.581.581 0 00-.3-.4h2.85a.643.643 0 01.794.75zm-8-.75V52c0 1.1-.3 5.35-.55 7.9h-4.856c.4-2.75.65-5.05.85-6.3.2-1.45.25-1.55 1.15-1.9l.35-.15h3.05zm-22.451-13.5a3.722 3.722 0 00-1.3.15 1.6 1.6 0 00.6.55 15.285 15.285 0 013.7 4.25 2.622 2.622 0 002.2 1.6 2.241 2.241 0 002.1-2.35c-.011-2.2-2.661-4.2-7.311-4.2zm-2.7 11.25c-1.55 0-2.65.2-2.65.4a1.263 1.263 0 00.6.5 17.151 17.151 0 014.1 3.65 2.578 2.578 0 001.95 1.2 2.219 2.219 0 002.05-2.3c-.011-3.4-5.162-3.45-6.062-3.45zM183.094 77a8.123 8.123 0 01-.3-2.9c0-1.55.1-3.35.1-4.5a2.439 2.439 0 00-.15-1.3 1.942 1.942 0 00-.45 1.05c-1.1 3.7-1.55 5.85-2.45 5.85-.5 0-3.1-1.7-5.05-7.5a42.884 42.884 0 004.5-11.2 1.242 1.242 0 011.05-1.2 1.523 1.523 0 001.25-1.05c0-1.05-4.45-2.5-4.9-2.5 0 0-.1 0-.1.35a31.347 31.347 0 01-2.85 11.6 86.738 86.738 0 01-1.7-17h9.75c.75 0 .95-.3.95-.6 0-1.2-2.7-3.4-3.8-3.8-.1 0-.2-.05-.3-.05-.75 0-2.25 2.6-2.35 2.75a.857.857 0 01-.6.4h-3.65c0-5.65 0-5.7.8-6.2a1.475 1.475 0 00.8-1 12.184 12.184 0 012.45 3.15 1.637 1.637 0 001.4 1.05 1.829 1.829 0 001.6-1.9c0-.4-.15-2.8-4.55-2.8a4.575 4.575 0 00-.85.05c-.05 0-.1.05-.15.05-.65-.9-4.4-1.45-5.1-1.5a.652.652 0 00-.45.05.976.976 0 00.05.35 84.071 84.071 0 01.85 8.7h-6.9l-.25-.2a17.065 17.065 0 00-4.95-2.35c-.05 0-.05 0-.05.1a1.407 1.407 0 00.05.4 74.663 74.663 0 01.85 12.35c0 8.8-1.25 17.4-5.8 23a3.246 3.246 0 00-.75 1.2c0 .1 0 .1.05.1.15 0 5-2.7 7.7-11.05a6.276 6.276 0 012.1 2.5.73.73 0 00.7.5c.15 0 3.9 0 4.9-5.45a57.913 57.913 0 00.3-8.45.922.922 0 01.6-1.05 1.516 1.516 0 001.05-1.15c0-1.25-3.4-2.75-3.65-2.75a4.42 4.42 0 00-1.2 1.3 1.016 1.016 0 01-.85.45h-2c.05-.9.05-1.75.05-2.6s0-1.7-.05-2.5v-.65c0-1.45.15-1.75.65-2.05a1.757 1.757 0 00.45-.35h7.1c.3 5.65.7 13.85 2.75 20.85A29.084 29.084 0 01156.294 80a1.484 1.484 0 00-.9.5c0 .1.15.15.4.15a26.352 26.352 0 0017-10c3.25 8.35 8.05 9.85 9 9.85a1.692 1.692 0 001.8-1.75 3.759 3.759 0 00-.512-1.75zm-32.8-14.2c-.4 0-1.2 1.3-1.45 1.65a.613.613 0 01-.6.35h-3.1a.049.049 0 00-.05-.05h-.1c-.7-.5-3.8-2.2-4.75-2.2a.126.126 0 00-.1.15 2.166 2.166 0 01.05.25 49.915 49.915 0 01.6 8.15c0 1.85-.05 3.85-.35 7.6v.2a1.364 1.364 0 001.5 1.4 1.977 1.977 0 002.15-1.7v-.05c0-.95-.05-1.9-.05-2.85h5.15l-.05.55a1.322 1.322 0 001.45 1.4 1.939 1.939 0 002.05-1.75v-.1c-.2-3.05-.35-4.55-.35-6.2 0-1.9.1-2 .9-2.55a1.8 1.8 0 00.9-1.2c-.012-1.25-3.312-3.05-3.812-3.05zm13.6-6.05c0 .75.05 2.2.05 3.75 0 6.2-.5 7.9-3.3 7.9a9.533 9.533 0 01-1.6-.15 49.072 49.072 0 001.7-12.1h2.55a.552.552 0 01.588.6zm-14.7 17.65h-5.2c0-2.2.05-4.45.1-6.6a1.33 1.33 0 01.5-1.35l.35-.3h3.75a.528.528 0 01.5.6c.05 1 .1 1.8.1 2.7-.012 1.35-.062 2.8-.112 4.95zm3.15-31.75c-.65 0-2.3 2.75-2.35 2.85a.857.857 0 01-.6.4h-2a74.081 74.081 0 01-9.8-.7c0 .55 1.4 2.4 2 2.4h.05a57.842 57.842 0 017.65-.45h8.2c.75 0 .95-.25.95-.5-.012-1.15-3.362-4-4.112-4zm-1.6-6.55a.375.375 0 00-.25-.05.568.568 0 00-.4.15 14.572 14.572 0 00-1.75 2.5.889.889 0 01-.55.4h-.5a37.8 37.8 0 01-6.9-.7c0 .75 1.2 2.4 1.9 2.4h.05a28.384 28.384 0 014.85-.45h6.15c.7 0 .9-.3.9-.6-.012-1.2-2.762-3.3-3.512-3.65zm.15 19.5a.459.459 0 00-.3-.05c-.6 0-2 2.25-2.15 2.5a.889.889 0 01-.55.4h-.55a38.271 38.271 0 01-6.95-.7c0 .75 1.3 2.4 1.9 2.4h.05a24.041 24.041 0 014.85-.45h6.15c.7 0 .9-.3.9-.6-.012-.85-2.062-2.9-3.362-3.5zm-.05-6.45a.3.3 0 00-.2-.05c-.6 0-1.75 1.7-2.2 2.5a.889.889 0 01-.55.4h-.6a37.8 37.8 0 01-6.9-.7c0 .85 1.3 2.4 1.9 2.4h.05a24.041 24.041 0 014.85-.45h6.15c.7 0 .9-.3.9-.65-.012-.75-2.112-2.85-3.412-3.45zM24.546 101.06a3.3 3.3 0 00-1.763-2.7c-1.128-.68-1.823-1.15-1.823-1.99a1.382 1.382 0 011.487-1.38 1.692 1.692 0 011.643 1.46.093.093 0 00.1.04.269.269 0 00.24-.1 9.806 9.806 0 00-.228-1.47c-.048-.15-.06-.17-.2-.17a11.413 11.413 0 00-1.391-.13h-.036c-1.283 0-2.663.63-2.663 2.16a3.054 3.054 0 001.715 2.47c1.224.79 1.763 1.25 1.763 2.18a1.659 1.659 0 01-1.691 1.8c-.395 0-1.547-.12-1.919-1.92a.147.147 0 00-.143-.06.168.168 0 00-.192.11v.01c0 .16.108 1.17.12 1.49a.283.283 0 00.2.31 4.232 4.232 0 001.919.44 2.663 2.663 0 002.862-2.55zm13.911 2.02c-.947-.09-1.031-.25-1.055-1.87-.012-.6-.024-1.53-.024-2.47 0-.62.012-1.24.024-1.79.036-1.76.084-1.69 1.043-1.81a.243.243 0 00.1-.21.127.127 0 00-.108-.15h-.012a10.69 10.69 0 01-1.439.07c-.947 0-1.835-.06-1.847-.06h-.012a.132.132 0 00-.108.14.227.227 0 00.108.21c1.008.08 1.032.07 1.068 1.82 0 .47.012 1.31.012 1.43 0 .25 0 .25-2.171.25-.924 0-1.871-.01-2.4-.04a.183.183 0 01-.216-.21v-1.6c.024-1.59.1-1.57 1.032-1.65a.272.272 0 00.108-.22.123.123 0 00-.108-.14h-.012a11.866 11.866 0 01-1.5.07c-.948 0-1.8-.06-1.811-.06h-.017a.141.141 0 00-.108.16.243.243 0 00.108.2c1.127.06 1.055.37 1.091 1.67.012.42.012 1.3.012 2.19s0 1.76-.012 2.17c-.036 1.6-.048 1.8-1.055 1.9a.291.291 0 00-.108.23.12.12 0 00.12.14h.024a7.781 7.781 0 011.427-.12 16.857 16.857 0 011.823.11.139.139 0 00.12-.16.249.249 0 00-.1-.2c-.948-.13-1.02-.16-1.032-1.95-.012-.45-.024-1.24-.024-1.84a.2.2 0 01.228-.22c.516-.02 1.583-.03 2.555-.03 1.919 0 2.015 0 2.015.25-.012.19-.012 1.33-.012 1.9-.024 1.6.024 1.78-1.032 1.89a.263.263 0 00-.12.21.14.14 0 00.132.16h.024a7.223 7.223 0 011.379-.11c.948 0 1.847.1 1.859.1a.139.139 0 00.12-.16.262.262 0 00-.089-.2zm8.068.01c-1.08-.12-1.02-.49-1.044-1.78-.012-.71-.024-1.67-.024-2.6 0-.67 0-1.33.024-1.86.036-1.35-.084-1.59 1.02-1.71a.218.218 0 00.12-.21.135.135 0 00-.12-.15h-.012a12.444 12.444 0 01-1.4.07c-.971 0-1.883-.07-1.883-.07a.137.137 0 00-.132.15.254.254 0 00.108.21c1.1.11 1.032.18 1.08 1.74.024.42.024 1.23.024 2.1s0 1.76-.024 2.33c-.036 1.34.084 1.66-1.032 1.78a.322.322 0 00-.108.23.114.114 0 00.108.13h.036a8.191 8.191 0 011.38-.08c.935 0 1.859.07 1.871.07a.129.129 0 00.119-.15.263.263 0 00-.111-.2zm13.886-7.95a.27.27 0 00.1-.19.144.144 0 00-.132-.17h-.012a8.934 8.934 0 01-1.211.07c-.863 0-1.679-.07-1.679-.07a.135.135 0 00-.12.15.254.254 0 00.1.21c1.331.15 1.307.71 1.319 2.05 0 .33-.012 1.17-.012 2.05 0 .65.012 1.32.024 1.79v.04c0 .04 0 .06-.024.06a.1.1 0 01-.048-.03c-.671-.76-1.475-1.7-2.206-2.48a27.912 27.912 0 01-2.987-3.48c-.12-.24-.1-.35-.264-.35h-.024a9.32 9.32 0 01-.791.04c-.612 0-1.212-.05-1.212-.05a.142.142 0 00-.155.15.28.28 0 00.1.21 1.047 1.047 0 011.128.97c0 1.23.012 2.83.012 3.98 0 2.63-.048 2.88-1.1 3a.26.26 0 00-.083.2c0 .09.023.15.107.15h.024a7.293 7.293 0 011.176-.07c.863 0 1.691.08 1.691.08a.139.139 0 00.12-.16.262.262 0 00-.1-.2c-.948-.14-1.164-.2-1.271-1.73-.048-.73-.084-2.48-.084-3.9 0-.38.012-.74.012-1.04a.051.051 0 01.036-.06.049.049 0 01.036.03c.851 1.01 2.266 2.57 3.322 3.76a34.933 34.933 0 012.59 3.13.428.428 0 00.348.27h.024a.26.26 0 00.264-.3v-.06c-.108-1.12-.156-3.35-.156-4.84 0-.49 0-.91.012-1.16.047-1.5-.061-1.92 1.127-2.05zm12.775 7.94a1.954 1.954 0 01-1.211-.73c-.984-1-2.471-2.92-3.371-3.95a.2.2 0 01-.036-.11.169.169 0 01.072-.14c.576-.45 1.847-1.64 2.879-2.42a3.767 3.767 0 011.247-.57.25.25 0 00.12-.21.151.151 0 00-.132-.17h-.024a7.214 7.214 0 01-1.163.07c-.732 0-1.4-.06-1.4-.06a.14.14 0 00-.132.16.281.281 0 00.108.2c.239.01.611.07.611.28a.393.393 0 01-.144.25c-2.854 2.85-3.13 2.86-3.19 2.86-.12 0-.12-.02-.12-1.14 0-2.06.012-2.13 1.008-2.26a.3.3 0 00.108-.22.118.118 0 00-.108-.14h-.024a9.521 9.521 0 01-1.38.07c-.923 0-1.823-.06-1.835-.06a.132.132 0 00-.12.16.249.249 0 00.1.2c1.044.1 1.032.24 1.056 1.61.012.42.012 1.47.012 2.54 0 .78 0 1.58-.012 2.13-.012 1.28 0 1.53-1.02 1.66a.286.286 0 00-.108.22.126.126 0 00.12.14h.015a7.123 7.123 0 011.32-.1c.923 0 1.859.09 1.871.09h.012a.139.139 0 00.119-.16.279.279 0 00-.107-.2c-.948-.12-1.008-.25-1.02-1.66-.012-.47-.012-1.8-.012-2.08a.232.232 0 01.18-.27c.108 0 .12.01 1.535 1.7 1.427 1.73 1.523 1.91 1.523 2.04 0 .18-.252.26-.551.27a.25.25 0 00-.12.21.13.13 0 00.12.15h.03a7.126 7.126 0 011.235-.09c.923 0 1.895.09 1.895.09h.012a.13.13 0 00.132-.15.278.278 0 00-.1-.21zm12.695 0a1.314 1.314 0 01-1.056-.95 75.634 75.634 0 01-2.7-7.53.184.184 0 00-.144-.18.285.285 0 00-.168.12 1.961 1.961 0 01-.672.56.184.184 0 00-.108.18.126.126 0 00.012.07.731.731 0 01.036.17.126.126 0 01-.012.07c-.431 1.13-.9 2.49-1.319 3.71-1.115 3.19-1.3 3.66-2.183 3.79a.286.286 0 00-.108.22.139.139 0 00.144.15h.036a6.356 6.356 0 011.08-.08 13.345 13.345 0 011.391.08.137.137 0 00.132-.15.266.266 0 00-.12-.22c-.516-.08-.852-.14-.852-.53a1.181 1.181 0 01.024-.18c.06-.32.528-1.68.7-2.25a.313.313 0 01.36-.24c.372-.03.755-.04 1.127-.04 1.152 0 1.247.07 1.271.15a24.456 24.456 0 01.828 2.62c0 .3-.264.4-.744.47a.254.254 0 00-.12.22.118.118 0 00.108.14h.024a8.083 8.083 0 011.248-.08c.887 0 1.715.08 1.715.08a.165.165 0 00.168-.18.253.253 0 00-.098-.19zm-3.394-3.8a.1.1 0 01-.1.07c-.2.01-.612.01-1.02.01s-.791 0-.971-.01a.154.154 0 01-.132-.06 29.176 29.176 0 011.079-3.1.077.077 0 01.048.05c.256.64 1.096 2.98 1.096 3.04zm11.3 3.81c-1.079-.12-1.019-.49-1.043-1.78-.012-.71-.024-1.67-.024-2.6 0-.67 0-1.33.024-1.86.036-1.35-.084-1.59 1.019-1.71a.218.218 0 00.12-.21.135.135 0 00-.12-.15h-.012a12.426 12.426 0 01-1.4.07c-.972 0-1.883-.07-1.883-.07a.137.137 0 00-.132.15.254.254 0 00.108.21c1.1.11 1.031.18 1.079 1.74.024.42.024 1.23.024 2.1s0 1.76-.024 2.33c-.036 1.34.084 1.66-1.031 1.78a.322.322 0 00-.108.23.114.114 0 00.108.13h.036a8.179 8.179 0 011.379-.08c.936 0 1.859.07 1.871.07a.13.13 0 00.12-.15.264.264 0 00-.107-.2zm22.268-7.95a.194.194 0 00.108-.18.154.154 0 00-.132-.18h-.012a8.009 8.009 0 01-1.211.08c-.264 0-.54-.01-.8-.03h-.036a.176.176 0 00-.192.15c-.108.48-3.118 6.35-3.2 6.35a.115.115 0 01-.072-.08c-.5-1.21-1.787-3.31-2.651-5.45-.059-.16-.263-.65-.3-.79-.024-.17-.048-.24-.156-.24a.25.25 0 00-.072.01 4.609 4.609 0 01-.876.06c-.647 0-1.295-.06-1.295-.06a.156.156 0 00-.168.17.238.238 0 00.1.19c.876.12 1.319.39 1.319 1.15 0 .06-.012.12-.012.18-.084 1.08-.264 3.72-.288 4.28-.119 1.73-.251 2.23-1.175 2.33a.254.254 0 00-.108.21.124.124 0 00.12.15h.024a6.711 6.711 0 011.127-.09 13.691 13.691 0 011.5.09h.012a.168.168 0 00.144-.18.207.207 0 00-.1-.18c-1.032-.16-1.032-.28-1.032-2.45a32.319 32.319 0 01.252-3.96.238.238 0 01.084.14c.456 1 1.151 2.43 1.679 3.49a20.923 20.923 0 011.163 2.57.3.3 0 10.6.03c.528-1.13 3.13-6.33 3.262-6.33.012 0 .024.01.024.06v.02c-.012.34-.012.81-.012 1.35 0 1.19.012 2.65.024 3.25v.29c0 1.18-.1 1.41-1.079 1.54a.254.254 0 00-.108.21.127.127 0 00.108.15h.024a8.6 8.6 0 011.331-.09c.972 0 1.943.09 1.943.09a.178.178 0 00.144-.18.217.217 0 00-.108-.18c-1.067-.16-1.007-.65-1.055-2.04-.024-.83-.048-1.97-.048-3-.001-2.46.011-2.75 1.21-2.9zm12.752 7.94a1.314 1.314 0 01-1.056-.95 75.252 75.252 0 01-2.7-7.53.184.184 0 00-.144-.18.285.285 0 00-.168.12 1.961 1.961 0 01-.672.56.184.184 0 00-.108.18.126.126 0 00.012.07.731.731 0 01.036.17.126.126 0 01-.012.07c-.432 1.13-.9 2.49-1.319 3.71-1.116 3.19-1.295 3.66-2.183 3.79a.286.286 0 00-.108.22.139.139 0 00.144.15h.036a6.352 6.352 0 011.079-.08 13.352 13.352 0 011.392.08.137.137 0 00.132-.15.266.266 0 00-.12-.22c-.516-.08-.852-.14-.852-.53a1.181 1.181 0 01.024-.18c.06-.32.528-1.68.7-2.25a.313.313 0 01.36-.24c.371-.03.755-.04 1.127-.04 1.151 0 1.247.07 1.271.15a24.456 24.456 0 01.828 2.62c0 .3-.264.4-.744.47a.254.254 0 00-.12.22.118.118 0 00.108.14h.024a8.078 8.078 0 011.247-.08c.888 0 1.716.08 1.716.08a.165.165 0 00.167-.18.255.255 0 00-.092-.19zm-3.395-3.8a.1.1 0 01-.1.07c-.2.01-.611.01-1.019.01s-.792 0-.971-.01a.154.154 0 01-.132-.06 29.176 29.176 0 011.079-3.1.077.077 0 01.048.05c.26.64 1.095 2.98 1.095 3.04zm16.1 3.8a1.95 1.95 0 01-1.21-.73c-.98-1-2.472-2.92-3.371-3.95a.2.2 0 01-.036-.11.169.169 0 01.072-.14c.575-.45 1.847-1.64 2.875-2.42a3.823 3.823 0 011.25-.57.259.259 0 00.12-.21.151.151 0 00-.13-.17h-.03a7.091 7.091 0 01-1.16.07c-.73 0-1.4-.06-1.4-.06a.14.14 0 00-.132.16.281.281 0 00.108.2c.24.01.612.07.612.28a.393.393 0 01-.144.25c-2.855 2.85-3.131 2.86-3.191 2.86-.12 0-.12-.02-.12-1.14 0-2.06.012-2.13 1.008-2.26a.3.3 0 00.108-.22.118.118 0 00-.108-.14h-.021a9.514 9.514 0 01-1.379.07c-.924 0-1.823-.06-1.835-.06a.132.132 0 00-.12.16.249.249 0 00.1.2c1.043.1 1.031.24 1.055 1.61.012.42.012 1.47.012 2.54 0 .78 0 1.58-.012 2.13-.012 1.28 0 1.53-1.019 1.66a.286.286 0 00-.108.22.126.126 0 00.12.14h.024a7.112 7.112 0 011.319-.1c.923 0 1.859.09 1.871.09h.012a.139.139 0 00.12-.16.281.281 0 00-.108-.2c-.948-.12-1.008-.25-1.02-1.66-.012-.47-.012-1.8-.012-2.08a.232.232 0 01.18-.27c.108 0 .12.01 1.536 1.7 1.427 1.73 1.523 1.91 1.523 2.04 0 .18-.252.26-.552.27a.25.25 0 00-.12.21.13.13 0 00.12.15h.024a7.155 7.155 0 011.238-.09c.92 0 1.89.09 1.89.09h.01a.134.134 0 00.14-.15.281.281 0 00-.109-.21zm12.78-3.94a4.385 4.385 0 00-4.53-4.55 4.532 4.532 0 00-4.62 4.55 4.376 4.376 0 004.58 4.47 4.318 4.318 0 004.57-4.47zm-1.44.22c0 2.04-.85 3.85-3.06 3.85-2.92 0-3.21-3.44-3.21-4.32 0-1.79.86-3.91 3.1-3.91 2.29 0 3.17 2.33 3.17 4.38zm13.9-4.85v-.01a.158.158 0 00-.17-.12.191.191 0 00-.12.05c-.31.37-.98.43-3.52.43-.79 0-1.61 0-2.41-.01a1.265 1.265 0 01-1.14-.38.154.154 0 00-.15-.08.2.2 0 00-.21.12 18.582 18.582 0 01-.49 2.22v.03a.161.161 0 00.18.13.213.213 0 00.17-.08 2.15 2.15 0 012.34-1.59c.71 0 .8 0 .85.3.05.34.05 1.57.05 1.76.01.41.01.94.01 1.49 0 .76 0 1.57-.01 2.22-.01 1.88-.04 1.9-1.28 2.1a.257.257 0 00-.12.23.113.113 0 00.12.13h.02a11.537 11.537 0 011.52-.08c1.12 0 2.22.08 2.23.08a.131.131 0 00.14-.14.307.307 0 00-.12-.22c-1.28-.14-1.28-.42-1.28-2.09 0-.66-.01-1.75-.01-2.62 0-2.2.06-2.75.07-2.85a.281.281 0 01.33-.31c1.82 0 2.26.17 2.65 1.49a.125.125 0 00.13.08c.18 0 .19-.07.19-.44v-.68c0-.16-.01-.32-.01-.47a4.252 4.252 0 01.04-.69zm13.45 4.63a4.393 4.393 0 00-4.54-4.55 4.529 4.529 0 00-4.61 4.55 4.376 4.376 0 004.58 4.47 4.318 4.318 0 004.57-4.47zm-1.44.22c0 2.04-.85 3.85-3.06 3.85-2.93 0-3.21-3.44-3.21-4.32 0-1.79.86-3.91 3.1-3.91 2.29 0 3.17 2.33 3.17 4.38z" fill-rule="evenodd"/></svg>