<svg xmlns="http://www.w3.org/2000/svg" width="246.472" height="102.78"><path data-name="staff/name2.svg" d="M8.991 14.69c.11.46.088.85.176 1.18.44 1.85 1.056 2.49 1.474 2.49a.949.949 0 00.616-1.12 4.827 4.827 0 00-.44-1.83 42.559 42.559 0 01-1.738-4.64 16.814 16.814 0 015.919-1.12.966.966 0 001.078-.75c0-.84-1.452-.86-2.487-.86h-.127c-1.21 0-.792.31-1.936.71l-2.772.94a59.71 59.71 0 01-.726-2.66 27.852 27.852 0 013.322-.92 1.018 1.018 0 00.99-.8c0-.35-.374-.66-1.122-.66a6.145 6.145 0 00-.99.05 5.007 5.007 0 00-1.408.68c-.242.11-.638.26-1.1.44l-.132-.53a5.236 5.236 0 01-.22-1.21 3.016 3.016 0 01.022-.44 2.855 2.855 0 00.044-.42c0-1.01-1.849-1.3-2.333-1.3a1.122 1.122 0 00-1.276.91c0 .13.11.17.264.17a1.859 1.859 0 00.33-.04c.066 0 .132-.02.2-.02.77 0 .968.75 1.628 2.57l.264.73a14.724 14.724 0 01-3.85.86 2 2 0 01-.748-.11.688.688 0 00-.308-.09.121.121 0 00-.132.15c0 .66.66 1.34 1.87 1.34a4.7 4.7 0 001.43-.26l2.112-.7.815 2.61c-3.213 1.06-4.511 1.48-5.611 1.48a4.833 4.833 0 01-1.32-.18 2.6 2.6 0 00-.529-.11.194.194 0 00-.22.2c0 1.3 2.091 1.54 2.9 1.54h.132a4.354 4.354 0 001.782-.64c1.144-.46 2.178-.86 3.169-1.21zm22.9-3.37c.44 1.56.837 3.23 1.1 4.38.066.28.044.53.088.75.2 1.23.77 1.87 1.144 1.87a.865.865 0 00.66-1.01 3.736 3.736 0 00-.286-1.22 29.694 29.694 0 01-1.672-5.25 14.477 14.477 0 013.08-1.13.114.114 0 01.132.09 12.357 12.357 0 01-1.87 2.95 2.008 2.008 0 00-.462.66.055.055 0 00.066.04 11.7 11.7 0 003.586-2.77c.154-.15.352-.26.55-.42a.931.931 0 00.44-.63c0-.73-2.024-1.21-2.156-1.21a.724.724 0 00-.506.22 1.619 1.619 0 01-.638.37c-.682.2-1.54.53-2.442.86l-.155-.66a3.271 3.271 0 01-.132-.73 1.926 1.926 0 01.044-.33 2.144 2.144 0 00.044-.35c0-.88-1.76-.99-1.8-.99a.979.979 0 00-1.078.75c0 .17.154.22.352.22h.132c.066 0 .132-.02.176-.02.4 0 .55.08 1.3 2.5a8.447 8.447 0 01-3.036.8 1.275 1.275 0 01-.462-.07 1.193 1.193 0 00-.484-.13.239.239 0 00-.264.28c0 .99 1.716 1.24 2.024 1.24a2.814 2.814 0 001.3-.44zm30.537-7.83a.947.947 0 001.056-.75c0-.35-.374-.93-1.716-.93-.858 0-1.034.49-1.98.71a15.584 15.584 0 01-3.125.46 2.476 2.476 0 01-1.518-.37.908.908 0 00-.4-.22.574.574 0 00-.242.57c0 .73.946 1.3 2.156 1.3a2.843 2.843 0 00.638-.05 43.507 43.507 0 015.132-.72zm-.7 2.46a57.788 57.788 0 01-6.579.73 2.433 2.433 0 01-1.694-.38.529.529 0 00-.374-.22.483.483 0 00-.418.53c0 .62 1.76 1.72 2.926 1.72a5.692 5.692 0 001.65-.42 20.729 20.729 0 015-1.08.394.394 0 01.484.35c0 .36-4.026 7.77-9.9 10.28a1.447 1.447 0 00-.7.44.136.136 0 00.154.07 3.009 3.009 0 00.748-.16c4.224-1.21 8.009-3.85 11.2-9.5a2.106 2.106 0 01.858-.86.977.977 0 00.6-.66c0-.86-2.619-1.39-2.707-1.39a9.439 9.439 0 00-1.251.55zm22.66-.44a.667.667 0 00.2.02 2 2 0 00.594-.11 8.581 8.581 0 012.442-.52c.308 0 .4.11.4.22a.888.888 0 01-.154.37c-3.366 5.3-6.953 9.48-11.816 11.53a1.4 1.4 0 00-.748.46.124.124 0 00.132.05 4.527 4.527 0 00.858-.18c5.787-1.67 9.2-5.19 12.894-10.67a2.422 2.422 0 011.1-1.15.713.713 0 00.617-.55c0-.5-1.519-1.49-1.981-1.49a.856.856 0 00-.462.17 1.77 1.77 0 01-.616.38c-.462.11-1.76.31-2.574.39a1.458 1.458 0 00.308-.79 2.119 2.119 0 00-2.069-1.61.95.95 0 00-.99.64.385.385 0 00.374.27.669.669 0 01.594.64c0 .72-3.234 5.19-6.336 7.54a1.375 1.375 0 00-.507.49.088.088 0 00.088.04 2.75 2.75 0 00.639-.22c2.543-1.1 4.501-2.97 7.01-5.92zm27.016 5.46a8.713 8.713 0 011.166 1.08 1.351 1.351 0 00.968.52.854.854 0 00.836-.92c0-.88-.946-1.56-1.892-1.98.7-.9 1.364-1.87 2.024-2.88a3.043 3.043 0 011.166-1.28.765.765 0 00.705-.57c0-.68-1.827-1.47-2.091-1.47a1.247 1.247 0 00-.726.33c-.176.13-.528.26-2.772.59a1.56 1.56 0 00.33-.86 2.128 2.128 0 00-2.047-1.63 1.078 1.078 0 00-1.056.66c0 .13.154.2.418.27a.674.674 0 01.638.64c0 .66-3.3 5.47-6.292 7.72a1.233 1.233 0 00-.485.46c0 .02.022.02.044.02a1.888 1.888 0 00.683-.22c2.508-1.14 4.422-2.99 6.887-5.98.066 0 .11.02.176.02a2.824 2.824 0 00.638-.13 9.368 9.368 0 012.2-.49c.352 0 .506.14.506.33a19.688 19.688 0 01-2.486 3.9 16.33 16.33 0 00-3.235-.49c-.154 0-.22 0-.22.05a2.439 2.439 0 00.638.33 14.989 14.989 0 012.047 1.1 23.873 23.873 0 01-8.89 7.02 1.557 1.557 0 00-.77.46c0 .04.044.07.132.07-.003 0 5.542-.64 10.757-6.67zm31.835-1.98c0-.51-.858-.75-2.157-.75-.286 0-.55 0-.77.02-.066 0-8.427.53-9.9.53a4.074 4.074 0 01-2.486-.51 1.022 1.022 0 00-.309-.11c-.11 0-.176.09-.176.29 0 1.08 1.937 2.09 2.927 2.09a6.029 6.029 0 001.3-.2 26.641 26.641 0 014.2-.42c2.244-.08 4.51-.08 5.566-.11.728-.02 1.802-.37 1.802-.83zm26.646-6.8a.662.662 0 00.63-.73c0-1.01-1.4-1.45-2.5-1.45a1.484 1.484 0 00-.99.2.629.629 0 00.35.24 6.8 6.8 0 011.91 1.43.838.838 0 00.597.31zm-2.31 1.1a.721.721 0 00.66-.77c0-1.08-1.52-1.48-2.56-1.48a1.724 1.724 0 00-.9.16.858.858 0 00.33.24 7.145 7.145 0 011.87 1.52.837.837 0 00.597.33zm-2.23-.24c0-.51-1.1-.93-1.89-.93a4.6 4.6 0 00-1.36.33 18.148 18.148 0 01-3.832.62 3.136 3.136 0 01-1.672-.35.677.677 0 00-.308-.14q-.2 0-.2.33c0 .58.528 1.5 2.2 1.5a5.449 5.449 0 00.77-.06 44.644 44.644 0 015.22-.71c.699-.02 1.069-.28 1.069-.59zm-3.17 4.51c.6-.07 1.48-.11 1.96-.11a13.8 13.8 0 013.11.39 1.393 1.393 0 00.33.05.8.8 0 00.9-.66c0-.88-2.18-1.41-2.71-1.41-.68 0-.99.37-1.74.44-2.747.26-5.388.73-7.39 1.06a4.518 4.518 0 01-.594.04 5.34 5.34 0 01-2.09-.37 1.251 1.251 0 00-.573-.2c-.132 0-.2.06-.2.26 0 1.19 2 1.78 2.949 1.78a3.387 3.387 0 001.276-.33 14.944 14.944 0 012.508-.63.275.275 0 00.308.3.608.608 0 00.177-.02c.044 0 .066-.02.11-.02.286 0 .4.35.4.84 0 3.19-3.675 7.59-7.2 9.35a1.375 1.375 0 00-.573.37c0 .02.022.05.088.05.683 0 8.252-2.18 9.531-9.53a3.784 3.784 0 00.06-.62.966.966 0 00-.64-1.03zm27.18-.29c.39-.02.79-.04 1.16-.04a16.957 16.957 0 013.83.42 2.984 2.984 0 00.42.04.857.857 0 00.99-.66c0-.81-2-1.34-2.8-1.34-.61 0-.88.26-1.78.37l-1.78.22a5.6 5.6 0 01.51-2.51 1.611 1.611 0 00.19-.61c0-.75-1.78-1.76-2.57-1.76a.923.923 0 00-.95.63.443.443 0 00.49.31c.44.07.88.46.88 1.94a5.469 5.469 0 01-.03.68c-.04.57-.04 1.04-.04 1.5l-3.1.35v-.42a2.918 2.918 0 01.13-1.08 1.1 1.1 0 00.13-.5c0-.79-1.69-1.52-2.24-1.52a1.043 1.043 0 00-1.08.66c0 .2.26.26.57.29.55.04 1.01.59 1.12 1.87l.07.83-1.74.2a8.91 8.91 0 01-1.03.07 8.051 8.051 0 01-2.75-.51 3.2 3.2 0 00-.55-.22c-.16 0-.2.26-.2.44 0 1.01 1.98 1.72 2.84 1.72a15.724 15.724 0 002.57-.55l.9-.16v.42c0 .62-.04 1.23-.08 2.11v.29c0 .99.33 1.45.7 1.45.57 0 .88-.99.88-1.63 0-.13-.02-.31-.04-.53a20.708 20.708 0 01-.18-2.28c1.01-.14 2.05-.22 3.06-.33v.13a12 12 0 01-5.7 10.12 3.264 3.264 0 00-.92.68.083.083 0 00.08.05 10.7 10.7 0 008.04-10.63v-.51zm3.93-2.55a.714.714 0 00.66-.77c0-1.08-1.51-1.48-2.55-1.48a1.724 1.724 0 00-.9.16.755.755 0 00.35.24 7.083 7.083 0 011.85 1.52.837.837 0 00.587.33zm2.31-1.1a.663.663 0 00.64-.73c0-1.01-1.41-1.45-2.51-1.45a1.509 1.509 0 00-.99.2.672.672 0 00.36.24 6.8 6.8 0 011.91 1.43.837.837 0 00.587.31zm16.5 4.82a7.34 7.34 0 01.16 2.11c0 1.1-.03 2.42-.14 3.43a8.665 8.665 0 01-.26 1.17 5.311 5.311 0 00-.11 1.03c0 1.28.51 2.16 1.01 2.16.66 0 .88-1.14.88-2.33 0-.66-.09-2.51-.09-4.14a9.726 9.726 0 01.22-2.64.836.836 0 00.09-.42 1.6 1.6 0 00-.92-1.3 20.542 20.542 0 001.74-2.31c.44-.68 1.12-1.03 1.12-1.58 0-.84-1.5-1.78-2.53-1.78a.835.835 0 00-.93.55.422.422 0 00.4.3.708.708 0 01.64.67c0 1.47-5 7.96-9.35 10.31a1.831 1.831 0 00-.68.49.05.05 0 00.06.04c.177 0 4.337-1.19 8.687-5.76zm23.48 7.43c7.43-4.66 10.91-11.11 10.91-11.59a.033.033 0 00-.04-.04 1.477 1.477 0 00-.51.48c-2.49 2.88-10.03 9.9-12.81 9.9a1.243 1.243 0 01-.94-.42.889.889 0 00-.4-.37 1.34 1.34 0 00-.28.83c0 1.08 1.84 2.18 2.7 2.18a.894.894 0 00.68-.33 3.9 3.9 0 01.687-.64zm-.47-7.5a1.036 1.036 0 00.97-1.1c0-1.36-1.82-2.07-4.11-2.07a4.115 4.115 0 00-1.72.22.638.638 0 00.38.22 10.915 10.915 0 013.54 2.27 1.359 1.359 0 00.937.46zM42.948 39.14c-.35 0-1 .5-1.95 1.75a1.232 1.232 0 01-.85.5H15.693l-.3-.2a25.113 25.113 0 00-5.65-2.45c-.1 0-.1 0-.1.1a.976.976 0 00.05.35c.55 2.45.8 6.9.8 17.95 0 6.6-.15 14.35-.5 20.25v.2a1.625 1.625 0 001.8 1.7c.4 0 2.5-.4 2.5-2v-2.45h27.1c0 .85-.05 1.7-.05 2.5v.05a1.641 1.641 0 001.85 1.7 2.3 2.3 0 002.5-2.15v-.1c-.3-6.7-.55-18.9-.55-26.05 0-6.05.05-6.3.95-6.7.95-.45 1.6-.9 1.6-1.4.002-1.1-3.798-3.55-4.748-3.55zm-1.45 18.95c0 5.05-.05 10.55-.1 15.45h-12c-.05-3.65-.05-9.75-.05-15.45h12.151zm-15.751 0c0 5.5-.05 11.9-.1 15.45h-11.4c-.05-4.5-.05-10.25-.05-15.45h11.551zm15.751-1.35H29.344c0-5.1.1-9.7.15-11.65a.941.941 0 01.45-.95 1.241 1.241 0 00.9-.85.614.614 0 00-.5-.55h10.251a.736.736 0 01.75.75c.1 2.8.15 7.7.15 13.25zm-15.751 0H14.193c0-5.55 0-10.3.05-12 .05-1.15.05-1.15 1.3-2h9.9a56.107 56.107 0 01.25 6.3c.001 1.3.051 4.2.051 7.7zm80.1 6.1c-.2-3.25-.4-7.35-.4-10 0-2.75.15-2.9.9-3.25.95-.45 1.55-.85 1.55-1.4 0-1-3.8-3.45-4.7-3.45-.45 0-.9.45-1.9 1.75a1.126 1.126 0 01-.8.5H89.644c.15-7.4.15-7.45 1.25-8a1.929 1.929 0 001.25-1.2c0-1.15-5.3-2.1-6.75-2.1-.15 0-.2.05-.2.15a.976.976 0 00.05.35c.6 2.35.55 6.55.6 8.35 0 .75.05 1.55.05 2.45H75.743l-.25-.2c-.95-.65-4.5-2.45-5.55-2.45a.126.126 0 00-.1.15 1.126 1.126 0 00.05.35 41.589 41.589 0 01.7 7.15c0 1.95 0 6.7-.4 11.85v.2a1.61 1.61 0 001.75 1.7 2.284 2.284 0 002.45-2v-.05c0-.8-.05-1.55-.05-2.3h11.6c-.05 6.05-.25 12.2-.55 16.55v.2a1.7 1.7 0 001.85 1.75c.2 0 2.7-.2 2.7-2.1v-.05c-.15-4.8-.25-10.65-.3-16.35h12.051c0 .65-.05 1.3-.05 1.95a1.663 1.663 0 001.8 1.75 2.279 2.279 0 002.4-2.1v-.15zm-16.2-2.75c0-2.15-.05-4.2-.05-6.2s.05-3.85.05-5.55h11.251c.95 0 .95 1.1.95 4.5 0 2.15-.1 4.65-.15 7.25H89.644zm-15.3 0c-.05-2-.05-4-.05-5.85 0-4.9 0-5 .8-5.5l.55-.4h10.3c.05 1.7.05 3.6.05 5.55 0 2 0 4.1-.05 6.2h-11.6zm94.609-3.4c-.5 0-.75.3-2.45 2.9a1.029 1.029 0 01-.75.4h-1.15c0-3.7 0-4 1.05-4.55a1.2 1.2 0 00.75-.85c0-.5-.7-1-5.2-1.6 2.3-1.8 4.847-4.15 6.1-5.35a1.4 1.4 0 011.15-.6h.3c.95 0 1.55-.25 1.55-.7 0-1.15-4.7-3.75-5.25-3.75-.1 0-.2.1-.25.45a9.557 9.557 0 01-.7 2.3 61.771 61.771 0 01-6 9.05 2.045 2.045 0 00-.55.85.108.108 0 00.1.1c.55 0 2.5-1.55 2.9-1.85a39.145 39.145 0 01.55 6.5h-4.2c-2.7 0-7.651-.1-13.5-.7 0 .6 1.3 2.4 2.15 2.4h.05c4.55-.4 8.5-.45 11.1-.45h4.4c0 1.5.05 3.2.05 4.95 0 2.45-.05 5-.1 7.25-.05 1.5-1.05 2.4-4 2.4a30.111 30.111 0 01-5.3-.55 2.3 2.3 0 00-.5-.05c-.1 0-.15 0-.15.05 0 .35 5.5 2.6 6.351 3.85a1.187 1.187 0 001.1.75c1.05 0 6.247-.75 6.247-5.8 0-.9-.1-3.55-.15-4.8-.05-2.3-.1-5.5-.1-8.05h7.5c.9 0 1.15-.3 1.15-.65-.002-.85-3.002-3.9-4.252-3.9zm-31.2-20.85a.133.133 0 00-.15.15.976.976 0 00.05.35c.3 1.6.55 6.1.55 15.3 0 2.15-.05 4.45-.05 6.8-6.2 3.85-8.7 4.85-10.6 5.25-.2.05-.3.1-.3.2 0 .45 3.3 3.65 3.9 3.65.4 0 .4-.6.75-.9 2.25-2.15 4.4-4.5 6.25-6.55-.1 6.8-.25 13.7-.45 18.1v.15a1.623 1.623 0 001.751 1.75c.9 0 2.45-.7 2.45-2.05v-.05c-.2-5.55-.3-15.85-.3-24.35 0-5.9.05-10.95.2-13.05a1.468 1.468 0 011.1-1.65 1.681 1.681 0 001-1.1c-.003-1.2-5.454-2-6.154-2zm26.4-.2a.81.81 0 00-.3.3c-2.047 2.05-13.6 5.6-18.5 6.05-.85.05-1.25.2-1.25.35 0 .25 1.85.25 2.05.25a100.633 100.633 0 0018.848-2.4 4.5 4.5 0 01.8-.15 1.776 1.776 0 01.5.1 3.735 3.735 0 001 .15c.55 0 .9-.2.9-.55-.002-.95-3.602-4.1-4.052-4.1zm-20.248 10.55c-.2 0-.25.05-.25.15a.839.839 0 00.3.45 17.148 17.148 0 013.65 5.4c.55 1.45 1.4 2 2.15 2a2.163 2.163 0 001.95-2.35c-.004-3.6-6.154-5.65-7.804-5.65zm7.9-3a.133.133 0 00-.15.15 1.454 1.454 0 00.25.5 17.931 17.931 0 012.6 5.85c.35 1.7 1.2 2.35 2 2.35a2.374 2.374 0 002.1-2.55c-.003-3.4-5.504-6.3-6.804-6.3zm-22.1 3.25a2.646 2.646 0 00-1.4.2 1.834 1.834 0 00.55.5 16.54 16.54 0 013.7 4.25 2.65 2.65 0 002.15 1.55 2.275 2.275 0 002.1-2.35c-.005-2.8-4.105-4.15-7.105-4.15zm18.851 18.05a.56.56 0 10-.45.7 19.356 19.356 0 014.15 4.2 2.78 2.78 0 002.2 1.55 2.076 2.076 0 001.9-2.2c-.004-3.2-4.605-4.25-7.805-4.25zm77.288 5.4c-.15-2-.4-8.7-.4-11.75 0-1.95.05-2.15 1-2.7a1.8 1.8 0 001.05-1.2c0-.85-3.3-2.95-4.2-2.95-.5 0-1.5 1.25-1.7 1.55a.733.733 0 01-.65.3h-13.8l-.15-.1a21.718 21.718 0 00-5.05-2.1.108.108 0 00-.1.1c0 .1.05.15.05.3a35.034 35.034 0 01.55 5.6c0 2.15-.1 10.85-.35 13.8v.2a1.481 1.481 0 001.65 1.5 2.11 2.11 0 002.25-1.85v-.8h16l-.05.6v.15a1.335 1.335 0 001.55 1.3c.65 0 2.35-.55 2.35-1.9v-.05zm-20.95-30l.25-1.4c.15-.95.1-1.15.75-1.45a1.861 1.861 0 001.15-1.05c0-.85-4.45-1.6-5.15-1.6-.1 0-.15.05-.15.3v.2c0 .2.05.5.05.9a20.856 20.856 0 01-.45 4.05 86.04 86.04 0 01-8.65-.65c0 .55 1.4 2.4 2.1 2.4h.05c1.95-.25 4.3-.3 6.2-.35a20.276 20.276 0 01-10.05 13.55 2.205 2.205 0 00-1.05.8c0 .05.05.05.15.05a20.248 20.248 0 0012-8.45c.45.55 2.85 2.15 3.45 3.4a.983.983 0 00.95.55c5.15-.35 5.7-4.6 6-7.9a.942.942 0 01.8-1.05 1.846 1.846 0 001.3-1.25c0-.8-3.15-2.7-3.85-2.7a.454.454 0 00-.35.15 6.2 6.2 0 00-1.15 1.15 1.3 1.3 0 01-1.05.35h-3.3zm27.3 9.15c-.15-1.9-.35-4.2-.35-5.75 0-1.7.1-1.85.9-2.4a1.712 1.712 0 001-1.1c0-1-3.2-2.9-3.95-2.9-.35 0-.65.25-1.6 1.5a.938.938 0 01-.65.4h-6.05l-.1-.1a18.388 18.388 0 00-4.8-2.1.108.108 0 00-.1.1c0 .1.05.15.05.25a34.564 34.564 0 01.55 5c0 1.35-.05 4.6-.35 7.4v.2a1.326 1.326 0 001.5 1.35 1.949 1.949 0 002.2-1.75v-1.25h8.05c0 .55-.05 1.05-.05 1.55v.05a1.431 1.431 0 001.6 1.45 1.894 1.894 0 002.15-1.75v-.15zm-10.15 15.3c0 1.55-.05 3-.05 4.2h-16c0-1.3-.05-2.75-.05-4.2h16.1zm-.7-9.85a.59.59 0 01.65.6c.05.7.05 1.8.05 3.05h-16.1v-1.75c.05-1.35.2-1.35.75-1.75l.2-.15h14.45zm.7 8.55h-16.15v-3.6h16.15v3.6zm-9.6 12.2c0-.7-3.6-3.9-4.15-3.9a.512.512 0 00-.2.35c-1.3 3.1-11.4 7.2-17 8.3a1.7 1.7 0 00-1.15.45c0 .15.35.25 1.1.25a44.489 44.489 0 0018.3-4.65 2.5 2.5 0 011.05-.25 2.242 2.242 0 01.55.05 1.542 1.542 0 00.45.05c.695 0 1.045-.3 1.045-.65zm15.35-35.15a.636.636 0 01.7.6c.05.6.05 1.55.05 2.55 0 1.05 0 2.2-.05 3.35h-8.1c0-.7-.05-1.45-.05-2.15 0-3.5.2-3.75.7-4.1l.3-.25h6.45zm1.95 40.15a1.933 1.933 0 001.95-2c0-4.95-14.5-6.4-15.35-6.4q-.45 0-.45.15a.567.567 0 00.4.35c3 1.2 7.95 3.7 10.55 6.35a4.376 4.376 0 002.895 1.55zm-21-39.05a.515.515 0 01.55.6c-.2 5.7-1.85 5.95-3.1 5.95a19.233 19.233 0 01-3.8-.7h-.2a22.076 22.076 0 002.4-5.85h4.15zM38.862 93.7v-.01a.153.153 0 00-.168-.12.207.207 0 00-.12.05c-.312.37-.983.43-3.514.43-.791 0-1.619 0-2.41-.01a1.256 1.256 0 01-1.14-.38.166.166 0 00-.156-.08.187.187 0 00-.2.12 20.8 20.8 0 01-.491 2.22v.03a.157.157 0 00.18.13.21.21 0 00.167-.08 2.153 2.153 0 012.339-1.59c.708 0 .8 0 .852.3.048.34.048 1.57.048 1.76.012.41.012.94.012 1.49 0 .76 0 1.57-.012 2.22-.012 1.88-.036 1.9-1.284 2.1a.27.27 0 00-.12.23.116.116 0 00.12.13h.024a11.581 11.581 0 011.524-.08c1.115 0 2.218.08 2.23.08a.128.128 0 00.132-.14.3.3 0 00-.12-.22c-1.271-.14-1.271-.42-1.271-2.09 0-.66-.012-1.75-.012-2.62 0-2.2.06-2.75.072-2.85a.275.275 0 01.324-.31c1.823 0 2.267.17 2.65 1.49a.13.13 0 00.132.08c.18 0 .192-.07.192-.44v-.68c0-.16-.012-.32-.012-.47a5.184 5.184 0 01.032-.69zm11.736 8.57a1.314 1.314 0 01-1.056-.95 75.634 75.634 0 01-2.7-7.53.184.184 0 00-.144-.18.285.285 0 00-.168.12 1.968 1.968 0 01-.671.56.184.184 0 00-.108.18.126.126 0 00.012.07.731.731 0 01.036.17.126.126 0 01-.012.07c-.432 1.13-.9 2.49-1.32 3.71-1.115 3.19-1.295 3.66-2.183 3.79a.288.288 0 00-.107.22.139.139 0 00.143.15h.042a6.356 6.356 0 011.08-.08 13.345 13.345 0 011.391.08.137.137 0 00.132-.15.266.266 0 00-.12-.22c-.516-.08-.851-.14-.851-.53a1.181 1.181 0 01.024-.18c.059-.32.527-1.68.695-2.25a.313.313 0 01.36-.24c.372-.03.756-.04 1.127-.04 1.152 0 1.248.07 1.272.15a24.448 24.448 0 01.827 2.62c0 .3-.264.4-.743.47a.254.254 0 00-.12.22.118.118 0 00.108.14h.024a8.061 8.061 0 011.247-.08c.887 0 1.715.08 1.715.08a.165.165 0 00.168-.18.253.253 0 00-.097-.19zm-3.394-3.8a.1.1 0 01-.1.07c-.2.01-.612.01-1.02.01s-.791 0-.971-.01a.154.154 0 01-.132-.06 29.176 29.176 0 011.079-3.1.077.077 0 01.048.05c.259.64 1.099 2.98 1.099 3.04zm17.115-4.14a.27.27 0 00.1-.19.144.144 0 00-.132-.17h-.012a8.944 8.944 0 01-1.211.07c-.864 0-1.679-.07-1.679-.07a.135.135 0 00-.12.15.254.254 0 00.1.21c1.331.15 1.307.71 1.319 2.05 0 .33-.012 1.17-.012 2.05 0 .65.012 1.32.024 1.79v.04c0 .04 0 .06-.024.06a.1.1 0 01-.048-.03c-.672-.76-1.475-1.7-2.207-2.48a27.959 27.959 0 01-2.986-3.48c-.12-.24-.1-.35-.264-.35h-.024c-.228.02-.516.04-.791.04-.612 0-1.212-.05-1.212-.05a.142.142 0 00-.156.15.278.278 0 00.1.21 1.047 1.047 0 011.128.97c0 1.23.012 2.83.012 3.98 0 2.63-.048 2.88-1.1 3a.26.26 0 00-.084.2c0 .09.024.15.108.15h.014a7.293 7.293 0 011.176-.07c.863 0 1.691.08 1.691.08a.139.139 0 00.12-.16.262.262 0 00-.1-.2c-.948-.14-1.164-.2-1.272-1.73-.048-.73-.084-2.48-.084-3.9 0-.38.012-.74.012-1.04a.051.051 0 01.036-.06.049.049 0 01.036.03c.852 1.01 2.267 2.57 3.322 3.76a34.986 34.986 0 012.591 3.13.428.428 0 00.348.27h.024a.26.26 0 00.264-.3v-.06c-.108-1.12-.156-3.35-.156-4.84 0-.49 0-.91.012-1.16.061-1.5-.047-1.92 1.14-2.05zm12.253 7.94a1.314 1.314 0 01-1.056-.95 75.634 75.634 0 01-2.7-7.53.184.184 0 00-.144-.18.285.285 0 00-.168.12 1.961 1.961 0 01-.672.56.184.184 0 00-.108.18.126.126 0 00.012.07.731.731 0 01.036.17.126.126 0 01-.012.07c-.431 1.13-.9 2.49-1.319 3.71-1.115 3.19-1.295 3.66-2.183 3.79a.286.286 0 00-.108.22.139.139 0 00.144.15h.036a6.356 6.356 0 011.08-.08 13.345 13.345 0 011.391.08.137.137 0 00.132-.15.266.266 0 00-.12-.22c-.516-.08-.852-.14-.852-.53a1.181 1.181 0 01.024-.18c.06-.32.528-1.68.7-2.25a.313.313 0 01.36-.24c.372-.03.755-.04 1.127-.04 1.152 0 1.247.07 1.271.15a24.456 24.456 0 01.828 2.62c0 .3-.264.4-.744.47a.254.254 0 00-.12.22.118.118 0 00.108.14h.024a8.083 8.083 0 011.248-.08c.887 0 1.715.08 1.715.08a.165.165 0 00.168-.18.253.253 0 00-.095-.19zm-3.394-3.8a.1.1 0 01-.1.07c-.2.01-.612.01-1.02.01s-.791 0-.971-.01a.154.154 0 01-.132-.06 29.176 29.176 0 011.079-3.1.077.077 0 01.048.05c.259.64 1.099 2.98 1.099 3.04zm16.1 3.8a1.959 1.959 0 01-1.212-.73c-.983-1-2.47-2.92-3.37-3.95a.2.2 0 01-.036-.11.169.169 0 01.072-.14c.576-.45 1.847-1.64 2.878-2.42a3.773 3.773 0 011.248-.57.25.25 0 00.12-.21.151.151 0 00-.132-.17h-.024a7.227 7.227 0 01-1.164.07c-.731 0-1.4-.06-1.4-.06a.14.14 0 00-.132.16.281.281 0 00.108.2c.24.01.612.07.612.28a.393.393 0 01-.144.25c-2.855 2.85-3.13 2.86-3.19 2.86-.12 0-.12-.02-.12-1.14 0-2.06.012-2.13 1.007-2.26a.3.3 0 00.108-.22.118.118 0 00-.108-.14h-.024a9.506 9.506 0 01-1.379.07c-.924 0-1.823-.06-1.835-.06a.132.132 0 00-.12.16.249.249 0 00.1.2c1.043.1 1.031.24 1.055 1.61.012.42.012 1.47.012 2.54 0 .78 0 1.58-.012 2.13-.012 1.28 0 1.53-1.019 1.66a.286.286 0 00-.108.22.126.126 0 00.12.14h.024a7.112 7.112 0 011.319-.1c.924 0 1.859.09 1.871.09h.012a.139.139 0 00.12-.16.281.281 0 00-.108-.2c-.947-.12-1.007-.25-1.019-1.66-.012-.47-.012-1.8-.012-2.08a.232.232 0 01.18-.27c.108 0 .12.01 1.535 1.7 1.427 1.73 1.523 1.91 1.523 2.04 0 .18-.252.26-.552.27a.25.25 0 00-.12.21.13.13 0 00.12.15h.024a7.146 7.146 0 011.236-.09c.923 0 1.895.09 1.895.09h.012a.13.13 0 00.131-.15.28.28 0 00-.103-.21zm12.694 0a1.314 1.314 0 01-1.055-.95 75.554 75.554 0 01-2.7-7.53.184.184 0 00-.143-.18.285.285 0 00-.168.12 1.961 1.961 0 01-.672.56.184.184 0 00-.108.18.126.126 0 00.012.07.731.731 0 01.036.17.126.126 0 01-.012.07c-.432 1.13-.9 2.49-1.319 3.71-1.116 3.19-1.3 3.66-2.183 3.79a.286.286 0 00-.108.22.139.139 0 00.144.15h.036a6.352 6.352 0 011.079-.08 13.352 13.352 0 011.392.08.136.136 0 00.131-.15.267.267 0 00-.119-.22c-.516-.08-.852-.14-.852-.53a1.181 1.181 0 01.024-.18c.06-.32.528-1.68.7-2.25a.313.313 0 01.359-.24c.372-.03.756-.04 1.128-.04 1.151 0 1.247.07 1.271.15a24.456 24.456 0 01.828 2.62c0 .3-.264.4-.744.47a.254.254 0 00-.12.22.118.118 0 00.108.14h.024a8.078 8.078 0 011.247-.08c.888 0 1.715.08 1.715.08a.165.165 0 00.168-.18.253.253 0 00-.1-.19zm-3.394-3.8a.1.1 0 01-.1.07c-.2.01-.611.01-1.019.01s-.792 0-.972-.01a.154.154 0 01-.132-.06 29.182 29.182 0 011.08-3.1.077.077 0 01.048.05c.255.64 1.094 2.98 1.094 3.04zm25.305-4.14a.194.194 0 00.108-.18.154.154 0 00-.132-.18h-.012a8.013 8.013 0 01-1.212.08c-.264 0-.539-.01-.8-.03h-.036a.176.176 0 00-.192.15c-.108.48-3.118 6.35-3.2 6.35a.115.115 0 01-.072-.08c-.5-1.21-1.787-3.31-2.651-5.45-.06-.16-.264-.65-.3-.79-.024-.17-.048-.24-.156-.24a.25.25 0 00-.072.01 4.592 4.592 0 01-.875.06c-.648 0-1.295-.06-1.295-.06a.156.156 0 00-.168.17.238.238 0 00.1.19c.875.12 1.319.39 1.319 1.15 0 .06-.012.12-.012.18-.084 1.08-.264 3.72-.288 4.28-.12 1.73-.252 2.23-1.175 2.33a.254.254 0 00-.108.21.124.124 0 00.12.15h.024a6.7 6.7 0 011.127-.09 13.661 13.661 0 011.5.09h.012a.168.168 0 00.144-.18.207.207 0 00-.1-.18c-1.031-.16-1.031-.28-1.031-2.45a32.319 32.319 0 01.252-3.96.238.238 0 01.084.14c.455 1 1.151 2.43 1.679 3.49a21.082 21.082 0 011.163 2.57.3.3 0 10.6.03c.527-1.13 3.13-6.33 3.262-6.33.012 0 .024.01.024.06v.02c-.012.34-.012.81-.012 1.35 0 1.19.012 2.65.024 3.25v.29c0 1.18-.1 1.41-1.079 1.54a.254.254 0 00-.108.21.127.127 0 00.108.15h.015a8.609 8.609 0 011.332-.09c.971 0 1.943.09 1.943.09a.178.178 0 00.144-.18.217.217 0 00-.108-.18c-1.068-.16-1.008-.65-1.056-2.04-.024-.83-.048-1.97-.048-3 .001-2.46.013-2.75 1.213-2.9zm12.751 7.94a1.313 1.313 0 01-1.055-.95 75.554 75.554 0 01-2.7-7.53.184.184 0 00-.144-.18.285.285 0 00-.168.12 1.959 1.959 0 01-.671.56.184.184 0 00-.108.18.126.126 0 00.012.07.731.731 0 01.036.17.126.126 0 01-.012.07c-.432 1.13-.9 2.49-1.32 3.71-1.115 3.19-1.295 3.66-2.182 3.79a.286.286 0 00-.108.22.139.139 0 00.144.15h.036a6.336 6.336 0 011.079-.08 13.32 13.32 0 011.391.08.137.137 0 00.132-.15.266.266 0 00-.12-.22c-.515-.08-.851-.14-.851-.53a1.181 1.181 0 01.024-.18c.06-.32.527-1.68.7-2.25a.313.313 0 01.36-.24c.372-.03.756-.04 1.128-.04 1.151 0 1.247.07 1.271.15a24.448 24.448 0 01.827 2.62c0 .3-.263.4-.743.47a.254.254 0 00-.12.22.118.118 0 00.108.14h.024a8.07 8.07 0 011.247-.08c.888 0 1.715.08 1.715.08a.165.165 0 00.168-.18.253.253 0 00-.101-.19zm-3.394-3.8a.1.1 0 01-.1.07c-.2.01-.612.01-1.019.01s-.792 0-.972-.01a.154.154 0 01-.132-.06 29.182 29.182 0 011.08-3.1.077.077 0 01.048.05c.254.64 1.094 2.98 1.094 3.04zm12.924 1.78a3.3 3.3 0 00-1.763-2.7c-1.128-.68-1.823-1.15-1.823-1.99a1.382 1.382 0 011.487-1.38 1.692 1.692 0 011.643 1.46.093.093 0 00.1.04.269.269 0 00.24-.1 9.806 9.806 0 00-.228-1.47c-.048-.15-.06-.17-.2-.17a11.436 11.436 0 00-1.391-.13h-.036c-1.284 0-2.663.63-2.663 2.16a3.054 3.054 0 001.715 2.47c1.224.79 1.763 1.25 1.763 2.18a1.659 1.659 0 01-1.691 1.8c-.4 0-1.547-.12-1.919-1.92a.148.148 0 00-.144-.06.168.168 0 00-.192.11v.01c0 .16.108 1.17.12 1.49a.282.282 0 00.2.31 4.232 4.232 0 001.919.44 2.663 2.663 0 002.861-2.55zm12.43 2.02a1.312 1.312 0 01-1.055-.95 75.554 75.554 0 01-2.7-7.53.184.184 0 00-.144-.18.285.285 0 00-.168.12 1.968 1.968 0 01-.671.56.184.184 0 00-.108.18.126.126 0 00.012.07.731.731 0 01.036.17.126.126 0 01-.012.07c-.432 1.13-.9 2.49-1.32 3.71-1.115 3.19-1.3 3.66-2.182 3.79a.286.286 0 00-.108.22.139.139 0 00.143.15h.036a6.356 6.356 0 011.08-.08 13.345 13.345 0 011.391.08.137.137 0 00.132-.15.266.266 0 00-.12-.22c-.516-.08-.851-.14-.851-.53a1.181 1.181 0 01.024-.18c.06-.32.527-1.68.7-2.25a.313.313 0 01.36-.24c.372-.03.756-.04 1.127-.04 1.152 0 1.248.07 1.272.15a24.448 24.448 0 01.827 2.62c0 .3-.264.4-.743.47a.254.254 0 00-.12.22.118.118 0 00.108.14h.022a8.061 8.061 0 011.247-.08c.887 0 1.715.08 1.715.08a.165.165 0 00.168-.18.253.253 0 00-.099-.19zm-3.394-3.8a.1.1 0 01-.1.07c-.2.01-.612.01-1.02.01s-.791 0-.971-.01a.154.154 0 01-.132-.06 29.176 29.176 0 011.079-3.1.077.077 0 01.048.05c.258.64 1.095 2.98 1.095 3.04zm14.653-4.15a.225.225 0 00.09-.2.137.137 0 00-.13-.15h-.01c-.37.03-.77.05-1.12.05-.7 0-1.27-.05-1.27-.05a.137.137 0 00-.13.15.261.261 0 00.11.21c.41.05.8.03.8.33a13.111 13.111 0 01-1.89 3.18.134.134 0 01-.1-.08c-.67-.95-1.29-2.11-1.77-2.89a.494.494 0 01-.08-.22c0-.26.51-.27.86-.32a.287.287 0 00.09-.22.119.119 0 00-.11-.14h-.01a10.346 10.346 0 01-1.39.07c-.95 0-1.8-.07-1.8-.07a.13.13 0 00-.132.15.273.273 0 00.1.22 1.239 1.239 0 011.175.74c.6.94 1.36 2.27 2.03 3.29a4.407 4.407 0 01.15 1.55c0 .31-.01.64-.02.86-.06 1.22.04 1.33-1.22 1.49a.26.26 0 00-.11.21c0 .09.03.15.11.15h.03a10.678 10.678 0 011.48-.09c1.06 0 2.13.09 2.14.09a.139.139 0 00.14-.15.247.247 0 00-.12-.21c-1.31-.11-1.19-.27-1.22-1.48-.01-.17-.01-.77-.01-1.27a2.056 2.056 0 01.18-1.37c.83-1.12 1.69-2.6 2.19-3.26a1.26 1.26 0 01.966-.57zm12.76 4.01a4.387 4.387 0 00-4.54-4.55 4.529 4.529 0 00-4.61 4.55 4.376 4.376 0 004.58 4.47 4.318 4.318 0 004.569-4.47zm-1.44.22c0 2.04-.85 3.85-3.06 3.85-2.93 0-3.21-3.44-3.21-4.32 0-1.79.86-3.91 3.1-3.91 2.289 0 3.169 2.33 3.169 4.38zm11.06 1.7a3.3 3.3 0 00-1.76-2.7c-1.13-.68-1.82-1.15-1.82-1.99a1.38 1.38 0 011.48-1.38 1.7 1.7 0 011.65 1.46.088.088 0 00.09.04.255.255 0 00.24-.1 10.515 10.515 0 00-.22-1.47c-.05-.15-.06-.17-.21-.17a11.343 11.343 0 00-1.39-.13h-.04c-1.28 0-2.66.63-2.66 2.16a3.049 3.049 0 001.72 2.47c1.22.79 1.76 1.25 1.76 2.18a1.658 1.658 0 01-1.69 1.8c-.4 0-1.55-.12-1.92-1.92a.143.143 0 00-.14-.06.175.175 0 00-.2.11v.01c0 .16.11 1.17.12 1.49a.293.293 0 00.21.31 4.241 4.241 0 001.92.44 2.66 2.66 0 002.859-2.55zm13.91 2.02c-.94-.09-1.03-.25-1.05-1.87-.01-.6-.02-1.53-.02-2.47 0-.62.01-1.24.02-1.79.04-1.76.08-1.69 1.04-1.81a.251.251 0 00.1-.21.13.13 0 00-.11-.15h-.01a10.765 10.765 0 01-1.44.07c-.95 0-1.84-.06-1.85-.06h-.01a.133.133 0 00-.11.14.237.237 0 00.11.21c1.01.08 1.03.07 1.07 1.82 0 .47.01 1.31.01 1.43 0 .25 0 .25-2.17.25-.92 0-1.87-.01-2.4-.04a.185.185 0 01-.22-.21v-1.6c.03-1.59.1-1.57 1.04-1.65a.27.27 0 00.1-.22.119.119 0 00-.1-.14h-.02a11.8 11.8 0 01-1.5.07c-.94 0-1.79-.06-1.81-.06h-.01a.142.142 0 00-.11.16.257.257 0 00.11.2c1.13.06 1.06.37 1.09 1.67.02.42.02 1.3.02 2.19s0 1.76-.02 2.17c-.03 1.6-.04 1.8-1.05 1.9a.3.3 0 00-.11.23.122.122 0 00.12.14h.02a7.869 7.869 0 011.43-.12 16.645 16.645 0 011.82.11.135.135 0 00.12-.16.248.248 0 00-.09-.2c-.95-.13-1.02-.16-1.03-1.95-.02-.45-.03-1.24-.03-1.84a.2.2 0 01.23-.22c.52-.02 1.58-.03 2.56-.03 1.91 0 2.01 0 2.01.25-.01.19-.01 1.33-.01 1.9-.03 1.6.02 1.78-1.03 1.89a.248.248 0 00-.12.21.135.135 0 00.13.16h.02a7.283 7.283 0 011.38-.11c.95 0 1.85.1 1.86.1a.141.141 0 00.12-.16.243.243 0 00-.101-.2zm8.07.01c-1.08-.12-1.02-.49-1.04-1.78-.01-.71-.03-1.67-.03-2.6 0-.67 0-1.33.03-1.86.03-1.35-.09-1.59 1.02-1.71a.225.225 0 00.12-.21.137.137 0 00-.12-.15h-.01a12.553 12.553 0 01-1.41.07c-.97 0-1.88-.07-1.88-.07a.137.137 0 00-.13.15.237.237 0 00.11.21c1.1.11 1.03.18 1.08 1.74.02.42.02 1.23.02 2.1s0 1.76-.02 2.33c-.04 1.34.08 1.66-1.04 1.78a.319.319 0 00-.1.23.11.11 0 00.1.13h.04a8.2 8.2 0 011.38-.08c.93 0 1.86.07 1.87.07a.131.131 0 00.12-.15.273.273 0 00-.111-.2z" fill-rule="evenodd"/></svg>