<svg xmlns="http://www.w3.org/2000/svg" width="167.125" height="106.31" viewBox="0 0 167.125 106.31">
  <defs>
    <style>
      .cls-1 {
        fill-rule: evenodd;
      }
    </style>
  </defs>
  <path id="staff_name4.svg" data-name="staff/name4.svg" class="cls-1" d="M929.408,4727.46c-0.22,0-.4.24-1.3,1.49a0.45,0.45,0,0,1-.352.2h-4.928v-2.38h5.324c0.353,0,.441-0.13.441-0.26,0-.57-1.563-1.74-2-1.74a0.312,0.312,0,0,0-.176.07,6.3,6.3,0,0,0-.968,1.19,0.434,0.434,0,0,1-.33.19h-2.288c0-1.4.066-1.54,0.308-1.65a0.592,0.592,0,0,0,.44-0.39,0.264,0.264,0,0,0-.2-0.24h6.227c0.352,0,.462-0.14.462-0.29a3.558,3.558,0,0,0-2.025-1.81c-0.242,0-.352.14-1.254,1.35a0.45,0.45,0,0,1-.352.2h-3.322c0.77-.58,1.782-1.41,2.266-1.85a0.675,0.675,0,0,1,.594-0.25c0.418,0,.726-0.08.726-0.28,0-.46-2.112-1.63-2.354-1.63-0.066,0-.066.07-0.088,0.24a10.892,10.892,0,0,1-1.606,3.77h-2.509a58.808,58.808,0,0,1-6.249-.34,1.714,1.714,0,0,0,1.013,1.13h0.022c1.848-.2,3.96-0.24,5.126-0.24h1.1c0.066,0.59.088,1.69,0.088,2.28h-0.176a55.552,55.552,0,0,1-6.094-.33,1.711,1.711,0,0,0,1.012,1.1h0.022c1.826-.19,3.806-0.22,4.95-0.22h0.286c0,0.99,0,1.37-.022,2.38h-0.99c-1.232,0-5.1-.09-7.283-0.35a1.779,1.779,0,0,0,1.1,1.14h0.022c1.893-.2,4.863-0.24,6.051-0.24H931.1c0.374,0,.462-0.13.462-0.29C931.564,4728.86,929.892,4727.46,929.408,4727.46Zm3.058,10.01c-4.819,0-8.075-1.74-9.549-4.36H931.1c0.374,0,.484-0.13.484-0.29,0-.57-1.738-1.95-2.2-1.95a3.8,3.8,0,0,0-1.277,1.49,0.492,0.492,0,0,1-.374.2H922.5a0.748,0.748,0,0,0,.022-0.22c0.176-1.23.2-1.1,0.594-1.25a0.542,0.542,0,0,0,.44-0.36c0-.39-2.465-0.81-2.619-0.81-0.044,0-.044.02-0.044,0.04v0.09c0.022,0.27.022,0.51,0.022,0.73a12.982,12.982,0,0,1-.132,1.78h-0.4c-1.232,0-5.258-.07-7.459-0.35a1.763,1.763,0,0,0,1.056,1.14h0.022c1.937-.2,5.083-0.24,6.271-0.24h0.4c-0.814,2.95-4.026,5.5-8.383,6.1a0.585,0.585,0,0,0-.484.22,0.518,0.518,0,0,0,.44.08c1.144,0,8.669-.41,10.144-6.4h0.132c1.21,4.16,5.39,6.16,7.2,6.16a0.465,0.465,0,0,0,.418-0.17c0.594-.64,2.6-1.39,2.6-1.59A0.308,0.308,0,0,0,932.466,4737.47Zm-14.874-17.5c-0.11,0-.154,0-0.154.05a0.576,0.576,0,0,0,.22.26,6.854,6.854,0,0,1,1.408,1.85,1.118,1.118,0,0,0,.968.77,0.937,0.937,0,0,0,.858-0.99C920.892,4720.63,918.956,4719.97,917.592,4719.97Zm32.957,3.79a0.114,0.114,0,0,0-.088-0.02,2.8,2.8,0,0,0-.946.92,0.426,0.426,0,0,1-.242.18h-1.342c0.066-2.97.066-2.97,0.506-3.17,0.022,0,.022-0.02.044-0.02a0.6,0.6,0,0,0,.154.15,4.476,4.476,0,0,1,.968,1.32,0.823,0.823,0,0,0,.726.55,0.794,0.794,0,0,0,.748-0.79c0-1.06-1.584-1.34-2.244-1.34h-0.176a0.458,0.458,0,0,0,.22-0.31c0-.38-1.848-0.79-2.465-0.79a0.056,0.056,0,0,0-.066.06,0.549,0.549,0,0,0,.022.16,21.749,21.749,0,0,1,.2,3.19c0,0.28.022,0.64,0.022,0.99a24.169,24.169,0,0,1-3.168-.31,1.8,1.8,0,0,0,.924,1.08h0.022c0.814-.11,1.606-0.18,2.222-0.2v1.12c0,3.52-.088,8.47-0.242,11.51v0.07a0.69,0.69,0,0,0,.749.74,0.968,0.968,0,0,0,.99-0.85v-0.03c-0.11-3.03-.154-7.32-0.154-10.73v-1.85h3.784c0.286,0,.374-0.13.374-0.27C952.089,4724.68,950.989,4723.98,950.549,4723.76Zm5.633,1.76a0.178,0.178,0,0,0-.11-0.02,4.206,4.206,0,0,0-1.056,1.3,0.364,0.364,0,0,1-.308.19h-1.035a22.41,22.41,0,0,1-3.388-.33,1.677,1.677,0,0,0,.99,1.1H951.3c0.924-.13,1.54-0.19,2.112-0.22,0.132,0.82.154,4.25,0.154,6.21,0,1.27-.022,2.42-0.044,2.79a1.006,1.006,0,0,1-1.254.97,10.082,10.082,0,0,1-1.914-.26,0.678,0.678,0,0,0-.22-0.03c-0.044,0-.044,0-0.044.03,0,0.15,1.716,1.05,2.09,1.67a0.427,0.427,0,0,0,.418.31,2.506,2.506,0,0,0,2.421-2.42v-0.09c0-.42-0.044-1.41-0.066-2.18-0.022-.81-0.022-1.87-0.022-2.93,0-1.03,0-2.06.022-2.79,0.022-.53.022-0.55,0.352-0.7a0.44,0.44,0,0,0,.308-0.29,0.356,0.356,0,0,0-.308-0.24l-0.132-.05h2.266c0.308,0,.418-0.13.418-0.26A3.465,3.465,0,0,0,956.182,4725.52Zm-13.8-1.06c-0.044,0-.044.07-0.066,0.16-0.308,1.36-3.125,4.99-5.083,6.42a0.837,0.837,0,0,0-.33.33c0,0.02,0,.02.044,0.02a9.586,9.586,0,0,0,3.433-2.15v1.36c0,2.05-.154,5.66-0.352,7.9v0.11a0.715,0.715,0,0,0,.726.82,0.955,0.955,0,0,0,.99-0.93v-0.04c-0.022-1.04-.044-2.51-0.044-4.03,0-1.87.022-3.81,0.11-5.02,0.022-.48.022-0.55,0.352-0.7a0.58,0.58,0,0,0,.418-0.42,0.358,0.358,0,0,0-.33-0.28l-0.462-.11c0.418-.42.836-0.86,1.232-1.32a0.606,0.606,0,0,1,.506-0.33c0.418,0,.594-0.14.594-0.29C944.124,4725.43,942.408,4724.46,942.386,4724.46Zm1.826,3.13c-0.11,0-.132.02-0.132,0.06s0.022,0.09.022,0.16c0.022,0.22.066,0.61,0.066,0.97a20.79,20.79,0,0,1-1.694,6.62,0.85,0.85,0,0,0-.154.37c0,0.02.022,0.02,0.044,0.02,0.264,0,2-1.6,3.19-6.51,0.088-.33.088-0.35,0.308-0.42a0.583,0.583,0,0,0,.506-0.44C946.368,4727.94,944.388,4727.59,944.212,4727.59Zm-2.024-7.26c-0.044,0-.044.04-0.066,0.11-0.4,1.36-3.037,4.2-4.555,5.15a0.736,0.736,0,0,0-.33.28c0,0.02.022,0.02,0.088,0.02a14.2,14.2,0,0,0,5.545-3.5,0.584,0.584,0,0,1,.4-0.24h0.242c0.286,0,.44-0.09.44-0.24C943.948,4721.47,942.386,4720.33,942.188,4720.33Zm6.381,7.24a0.071,0.071,0,0,0-.066.08,0.216,0.216,0,0,0,.022.11,14.189,14.189,0,0,1,1.3,5.06c0.044,0.93.4,1.3,0.792,1.3a1.218,1.218,0,0,0,.946-1.36C951.561,4730.71,948.877,4727.57,948.569,4727.57Zm6.953-6.8a0.13,0.13,0,0,0-.11-0.03,4.206,4.206,0,0,0-1.056,1.3,0.373,0.373,0,0,1-.286.2h-0.419a13.4,13.4,0,0,1-2.442-.33,1.633,1.633,0,0,0,.946,1.1H952.2a11.691,11.691,0,0,1,1.739-.22h2.838c0.308,0,.418-0.13.418-0.26A3.428,3.428,0,0,0,955.522,4720.77Zm25.564,15.71c-0.22,0-.352.19-1.078,1.41a0.482,0.482,0,0,1-.374.19h-0.507c-0.022-.92-0.066-1.78-0.066-2.55,0-1.17,0-1.36.441-1.61a0.656,0.656,0,0,0,.418-0.48c0-.46-1.629-1.28-1.8-1.28a0.332,0.332,0,0,0-.22.14,6.172,6.172,0,0,0-.484.52,0.3,0.3,0,0,1-.264.14h-7.811l-0.11-.07a9.842,9.842,0,0,0-2.112-.92c-0.044,0-.044,0-0.044.04a0.366,0.366,0,0,0,.022.13,19.458,19.458,0,0,1,.264,4.03c0,0.57,0,1.23-.022,1.85-1.342-.05-2.795-0.16-3.917-0.29a1.673,1.673,0,0,0,1.034,1.15h0.022c1.981-.2,4.8-0.25,6.007-0.25H982.6c0.374,0,.484-0.11.484-0.24A3.864,3.864,0,0,0,981.086,4736.48Zm-8.6-7.11c-0.265,0-.419.2-0.969,0.95a0.388,0.388,0,0,1-.33.15h-1.342c0-2.05,0-2.05.286-2.22a0.405,0.405,0,0,0,.242-0.27,0.205,0.205,0,0,0-.132-0.15h1.122v0.2a0.548,0.548,0,0,0,.616.53,0.743,0.743,0,0,0,.793-0.62v-0.04c-0.044-.47-0.088-1.9-0.088-2.18,0-.38,0-0.27.44-0.53a0.539,0.539,0,0,0,.308-0.37c0-.36-1.409-1.04-1.585-1.04a1.287,1.287,0,0,0-.616.51,0.342,0.342,0,0,1-.286.15h-1.1c0-1.72,0-1.74.286-1.87a0.4,0.4,0,0,0,.264-0.26,0.184,0.184,0,0,0-.176-0.18l-0.2-.04h3.455c0.352,0,.462-0.16.462-0.29a3.537,3.537,0,0,0-1.629-1.43,1.037,1.037,0,0,0-.11-0.02c-0.242,0-.374.17-0.968,1.01a0.42,0.42,0,0,1-.286.18h-4l-0.088-.07a12.686,12.686,0,0,0-2.069-.95,0.063,0.063,0,0,0-.066.07c0,0.04.022,0.07,0.022,0.13a18.184,18.184,0,0,1,.242,2.8c0,1.36-.022,5.98-0.22,8.42v0.07a0.584,0.584,0,0,0,.683.57,0.914,0.914,0,0,0,.99-0.7v-0.86h7.195c0.4,0,.528-0.15.528-0.31A2.813,2.813,0,0,0,972.483,4729.37Zm8.537-6.71c-0.044,0-.11-0.02-0.154-0.02-0.264,0-.4.15-1.166,1.3a0.445,0.445,0,0,1-.33.17h-2.927c0.462-.75.858-1.47,1.144-2.05a0.527,0.527,0,0,1,.44-0.41,0.636,0.636,0,0,0,.638-0.42c0-.46-2.266-1.17-2.464-1.17-0.044,0-.066.02-0.066,0.22,0,2.66-2.574,7.09-2.618,7.15a1.284,1.284,0,0,0-.264.51c0,0.02,0,.02.022,0.02,0.132,0,1.32-.92,2.816-3.28h6.315c0.374,0,.484-0.13.484-0.26A3.457,3.457,0,0,0,981.02,4722.66Zm-9.66,4.62h-4.95c0-.79.022-1.58,0.022-2.27H971.1a0.222,0.222,0,0,1,.264.22v2.05Zm6.205,10.8h-2v-0.68c0-3.06,0-3.23.264-3.32a0.539,0.539,0,0,0,.374-0.35,0.239,0.239,0,0,0-.154-0.2h1.276a0.216,0.216,0,0,1,.242.24c0.022,0.44.022,1.14,0.022,1.94S977.587,4737.36,977.565,4738.08Zm-3.41,0h-2v-0.68c0-3.06,0-3.23.265-3.32a0.539,0.539,0,0,0,.374-0.35,0.239,0.239,0,0,0-.154-0.2h1.474c0.066,0.53.066,2.15,0.066,2.73C974.177,4736.87,974.177,4737.56,974.155,4738.08Zm-3.411,0h-0.176c-0.374,0-.99,0-1.716-0.02v-3.67c0.022-.51.022-0.55,0.286-0.73a1.546,1.546,0,0,0,.2-0.13H970.7c0.066,0.53.066,2.15,0.066,2.73C970.766,4736.87,970.766,4737.56,970.744,4738.08Zm10.034-10.91a0.3,0.3,0,0,0-.132-0.02c-0.11,0-.308.04-1.144,1.3a0.4,0.4,0,0,1-.309.17h-0.55a30.694,30.694,0,0,1-4.488-.31,1.686,1.686,0,0,0,.924,1.06H975.1a26.718,26.718,0,0,1,3.476-.2h3.653c0.374,0,.462-0.11.462-0.22A3.8,3.8,0,0,0,980.778,4727.17Zm-12.256,3.3H966.41v-2.64h2.024a6.193,6.193,0,0,1,.066.95C968.5,4729.13,968.522,4729.99,968.522,4730.47Zm0-6.03h-2.09c0-2.02,0-2.09.33-2.24l0.22-.11h1.452a6.75,6.75,0,0,1,.066.99C968.5,4723.39,968.522,4724.02,968.522,4724.44Zm35.908,13.95c-0.09-1.43-.2-3.54-0.2-5.13,0-1.51.04-1.54,0.44-1.78a0.771,0.771,0,0,0,.48-0.55c0-.57-1.71-1.32-1.8-1.32-0.22,0-.26.07-0.86,0.73a0.313,0.313,0,0,1-.28.13h-6.738a16.744,16.744,0,0,0-1.848-.88,1.741,1.741,0,0,0,1.65-1.69v-0.05c0-.28-0.066-0.64-0.066-0.88-0.022-.26-0.022-0.64-0.022-0.9a1.6,1.6,0,0,1,.22-1.06,0.459,0.459,0,0,0,.418-0.3,0.19,0.19,0,0,0-.132-0.16h3.345c0.352,0,.44-0.13.44-0.26,0-.64-1.452-1.5-1.629-1.5a2.509,2.509,0,0,0-.9,1.06,0.366,0.366,0,0,1-.286.17h-1.672c0-.48-0.022-1.14-0.022-1.71H998a0.323,0.323,0,0,0,.4-0.31,3.06,3.06,0,0,0-1.409-1.39,0.469,0.469,0,0,0-.176-0.02,2.108,2.108,0,0,0-.792.99,0.352,0.352,0,0,1-.242.18h-0.792v-0.36c0.022-.7.088-0.63,0.44-0.81a0.638,0.638,0,0,0,.418-0.4c0-.48-2.4-0.74-2.486-0.74a0.045,0.045,0,0,0-.044.04,0.366,0.366,0,0,0,.022.13,10.125,10.125,0,0,1,.22,2.11c0,0.11.022,1.02,0.022,1.77v0.52h-0.572a22.765,22.765,0,0,1-3.763-.3,1.708,1.708,0,0,0,.88,1.05h0.022a19.433,19.433,0,0,1,2.817-.22h0.814a16.519,16.519,0,0,1,.11,2.2c0,1.39-.088,1.54-1.056,1.54a10.041,10.041,0,0,1-1.584-.15h-0.066a10.859,10.859,0,0,0,1.276-1.39,0.363,0.363,0,0,1,.352-0.22c0.33-.02.484-0.13,0.484-0.28a3.743,3.743,0,0,0-1.826-.99c-0.066,0-.066.06-0.066,0.17a8.448,8.448,0,0,1-2.993,4.23,0.946,0.946,0,0,0-.264.24,0.045,0.045,0,0,0,.044.04,8.346,8.346,0,0,0,2.905-1.71,3.728,3.728,0,0,1,1.694,1.16,0.371,0.371,0,0,0,.374.27,16.684,16.684,0,0,1,.264,2.5c0,1.48-.022,4.07-0.176,6.41v0.06a0.684,0.684,0,0,0,.77.69,0.925,0.925,0,0,0,1.012-.75v-0.02c0-.22-0.022-0.49-0.022-0.77h7.68c0,0.28-.02.57-0.02,0.83a0.641,0.641,0,0,0,.72.66,0.977,0.977,0,0,0,1.04-.83v-0.05Zm-1.52-16.92a33.232,33.232,0,0,1-4.489-.26,1.651,1.651,0,0,0,.946,1.01h0.022c0.286-.05.572-0.07,0.831-0.09a9.408,9.408,0,0,0,1.79,3.76,12.657,12.657,0,0,1-5.328,3.55,1.208,1.208,0,0,0-.66.33,0.15,0.15,0,0,0,.132.02,11.929,11.929,0,0,0,6.606-2.99,9.119,9.119,0,0,0,4.18,2.61,0.455,0.455,0,0,0,.37-0.19c0.57-.64,2.16-1.04,2.16-1.19,0-.05-0.05-0.07-0.18-0.07a11.147,11.147,0,0,1-5.72-1.93,17.941,17.941,0,0,0,2.33-3.13,0.623,0.623,0,0,1,.57-0.37,0.541,0.541,0,0,0,.47-0.44c0-.42-1.21-1.13-1.43-1.21a0.411,0.411,0,0,0-.16-0.05,1.307,1.307,0,0,0-.61.51,0.36,0.36,0,0,1-.33.13h-1.5Zm-0.2,13.8c0,0.66-.02,1.34-0.02,1.95h-7.68c0-.61-0.022-1.29-0.022-1.95h7.722Zm-0.28-4.25a0.252,0.252,0,0,1,.26.26c0.02,0.38.02,0.82,0.02,1.35h-7.744c0-.31.022-0.53,0.022-0.71a0.771,0.771,0,0,1,.33-0.77l0.176-.13h6.936Zm0.28,3.67h-7.744v-1.49h7.744v1.49Zm1.56-12.67a0.147,0.147,0,0,1,.18.15,12.608,12.608,0,0,1-1.85,3.04,9.162,9.162,0,0,1-2.05-3.1c0.84-.07,1.59-0.09,2.23-0.09h1.49Zm-6.4,6.01a0.787,0.787,0,0,0,.749-0.82c0-.99-1.321-1.54-2.751-1.58a0.267,0.267,0,0,0-.242.04,0.669,0.669,0,0,0,.2.18,4.51,4.51,0,0,1,1.254,1.56A0.949,0.949,0,0,0,997.87,4728.03Zm-87.907,65.11c0-1.85-.15-3.25-0.2-6.05l-0.15-8.95h9.251c0.85,0,1.05-.3,1.05-0.65,0-.95-2.55-3.35-4.151-3.9-0.1,0-.2-0.05-0.35-0.05-0.45,0-1.35,1.1-2.55,2.95a0.949,0.949,0,0,1-.75.4h-2.5c0-2.05-.05-4.05-0.05-5.85,0-7.95.05-8.2,0.9-8.6,0.95-.45,1.5-0.85,1.5-1.35,0-1.1-3.85-3.5-4.65-3.5-0.2,0-.5,0-1.85,1.7a1.034,1.034,0,0,1-.7.5h-13.4a17.73,17.73,0,0,0-6.05-2.7,0.133,0.133,0,0,0-.15.15,0.544,0.544,0,0,0,.05.25,40.556,40.556,0,0,1,.8,8.55c0,2.95-.05,9.25-0.1,10.85-2.851-.05-6.9-0.25-10.751-0.7,0,0.55,1.3,2.4,2.15,2.4h0.05c3.2-.3,6.1-0.4,8.451-0.45-0.5,7.4-2.6,15.5-10.051,20.85a3.41,3.41,0,0,0-1.15,1c0,0.05.05,0.05,0.15,0.05s13.5-3.65,14.8-21.9h16.4c0,4.95,0,10.1-.05,14.25-0.05,1.95-1.1,2.9-4,2.9a31.821,31.821,0,0,1-5.951-.75,1.407,1.407,0,0,0-.4-0.05c-0.1,0-.15,0-0.15.05,0,0.45,6,3.15,6.751,4.3a1.116,1.116,0,0,0,1.05.7c1.5,0,6.75-1.4,6.75-6.3v-0.1Zm-20.351-16.25c0.1-2.3.2-9.9,0.2-13.05,0-2.25.05-2.15,0.9-2.6l0.2-.1h14.151a0.667,0.667,0,0,1,.7.8c0.15,3.35.2,8.95,0.2,14.95H889.612Zm9.95-3.95a2.044,2.044,0,0,0,1.9-2.2c0-4.35-8.3-5.3-9.4-5.3a0.233,0.233,0,0,0-.25.1,2.123,2.123,0,0,0,.7.65,23.378,23.378,0,0,1,4.65,5.05A2.98,2.98,0,0,0,899.562,4772.94Zm75.681,24.7c-0.3-3.75-.5-7.55-0.5-10.15,0-2.5.05-2.75,1.1-3.4a1.8,1.8,0,0,0,1.05-1.2c0-1.2-3.8-3.15-4.45-3.15-0.45,0-1,.65-1.75,1.65a0.807,0.807,0,0,1-.7.4H959.242l-0.15-.1a27.529,27.529,0,0,0-5.25-2.25,0.133,0.133,0,0,0-.15.15,2.166,2.166,0,0,1,.05.25,38.484,38.484,0,0,1,.55,8.45c0,2.4-.05,5.65-0.45,10.1v0.15a1.549,1.549,0,0,0,1.75,1.55c1.1,0,2.35-.7,2.35-1.8v-2.1h13.251l-0.05,1.8a1.576,1.576,0,0,0,1.8,1.6,2.09,2.09,0,0,0,2.3-1.8v-0.15Zm-20.951-25h-0.4a30.319,30.319,0,0,1-3.9-.35,1.319,1.319,0,0,0-.35-0.05c1.85-5.35,3.75-10.25,4.4-11.95a5.081,5.081,0,0,0,.35-1.15,0.2,0.2,0,0,0-.1-0.2c-0.9,0-7.7,14.45-12.1,24.5-0.85,1.9-2,2.2-4,2.25-0.9.05-1.4,0.15-1.4,0.3a1.944,1.944,0,0,0,1.35.6c3.1,0.8,3.85,2.35,3.85,4.3,0,1.4-.4,2.95-0.5,4.55,0,0.25-.05.45-0.05,0.65,0,2.5,1.2,3.6,2.35,3.6,1.05,0,2.451-1.1,2.451-3.2a6.884,6.884,0,0,0-.45-2.25,12.274,12.274,0,0,1-.65-4.05c0-4.45,2.8-13.15,4.45-17.8a0.378,0.378,0,0,0,.05.2c0.2,0.65,1.9,4.4,2.9,4.4,0.45,0,.8-0.65,1.45-0.75a178.293,178.293,0,0,0,19.551-4.25,17.159,17.159,0,0,1,1.7,3c0.6,1.4,1.45,1.95,2.3,1.95a2.412,2.412,0,0,0,2.2-2.55c0-4.55-11.151-9.05-11.851-9.05-0.15,0-.25.05-0.25,0.15a1.241,1.241,0,0,0,.45.55,34.952,34.952,0,0,1,4.8,5.05c-3.75.5-8.7,1.1-14.351,1.4a118.4,118.4,0,0,0,6.2-11.55,1.555,1.555,0,0,1,1.1-1.05c1-.3,1.4-0.7,1.4-1.05,0-1.2-5.951-2.55-6.351-2.55a0.133,0.133,0,0,0-.15.15,2.819,2.819,0,0,1,.05.35v0.25c0,3.5-2.95,13.45-3.6,15.5Zm16,10.45a0.687,0.687,0,0,1,.8.7c0.1,1.55.15,3.75,0.15,6.35,0,1.5-.05,3.1-0.05,4.75H957.942c0-1.35-.05-2.75-0.05-4.1,0-1.9.05-3.85,0.1-5.85,0.05-1.1.05-1.15,0.7-1.55l0.4-.3h11.2Zm-23.651-19.05a2.241,2.241,0,0,0,2.1-2.35c0-2.2-2.65-4.2-7.3-4.2a3.717,3.717,0,0,0-1.3.15,1.591,1.591,0,0,0,.6.55,15.285,15.285,0,0,1,3.7,4.25A2.625,2.625,0,0,0,946.642,4764.04Zm-4.251,10.15a2.133,2.133,0,0,0,2-2.25c0-1.65-1.55-3.55-6-3.55-1.25,0-2.75.2-2.75,0.4a1.263,1.263,0,0,0,.6.5,17.127,17.127,0,0,1,4.1,3.65A2.6,2.6,0,0,0,942.391,4774.19Zm94.659,17c-0.1,0-.2-0.05-0.35-0.05-0.7,0-2.75,3.05-3.05,3.5a1.114,1.114,0,0,1-.85.45h-27.95v-2.1a1.69,1.69,0,0,0,.6-0.3c5.95-3.75,8.4-9.65,8.9-16.2h7.7a33.1,33.1,0,0,1,.2,3.85v1.45c0,2.75-.1,7-0.25,9.65v0.15a1.535,1.535,0,0,0,1.7,1.55,1.965,1.965,0,0,0,2.2-1.75v-0.1c-0.1-2.5-.25-5.9-0.25-8.65,0-3.95.05-4.2,0.8-4.55a1.2,1.2,0,0,0,.8-0.85c0-.35-0.2-0.5-1.4-0.75h10.95c0.75,0,.95-0.35.95-0.65,0-1.25-3.65-4.25-4.4-4.25-0.65,0-2.2,2.3-2.7,3.15a1.148,1.148,0,0,1-.65.5h-15.55a18.25,18.25,0,0,0,0-2.7v-1.8a1.263,1.263,0,0,1,.6-1.2,3.47,3.47,0,0,0,.6-0.5,97.783,97.783,0,0,0,13.3-2.1,3.922,3.922,0,0,1,.7-0.1,3.441,3.441,0,0,1,.65.1,2.486,2.486,0,0,0,.8.15,0.676,0.676,0,0,0,.8-0.6c0-1-3.2-4.05-3.55-4.05a0.629,0.629,0,0,0-.35.3c-1.4,1.6-9.1,4.25-12.8,5.15a21.6,21.6,0,0,0-4.95-2.05,0.108,0.108,0,0,0-.1.1c0,0.05.05,0.15,0.1,0.35a46.993,46.993,0,0,1,.65,8.3c0,11.3-4.1,15.95-6.05,17.9,0-10.5.1-26.65,0.2-29.8,0.05-1,.05-1.15.7-1.6a4.325,4.325,0,0,0,.5-0.35h32.95c0.85,0,1.1-.35,1.1-0.7,0-1.05-3.1-3.55-4.65-4.1-0.1,0-.2-0.05-0.3-0.05-0.7,0-2.7,2.75-2.95,3.1a1.018,1.018,0,0,1-.8.45h-25.1c-0.8-.8-5.4-2.65-5.9-2.65-0.1,0-.1,0-0.1.1a0.976,0.976,0,0,0,.05.35,53.327,53.327,0,0,1,.65,7.7v3.55c0,8.3-.15,23.35-0.6,29.9v0.2a1.61,1.61,0,0,0,1.75,1.7,2.339,2.339,0,0,0,2.5-2.05v-1.85h35.8c0.85,0,1.1-.35,1.1-0.7C1041.75,4795.04,1039.2,4791.94,1037.05,4791.19Zm-133.608,22.76v-0.01a0.153,0.153,0,0,0-.168-0.12,0.207,0.207,0,0,0-.12.05c-0.311.37-.983,0.43-3.514,0.43-0.791,0-1.619,0-2.41-.01a1.256,1.256,0,0,1-1.14-.38,0.166,0.166,0,0,0-.156-0.08,0.186,0.186,0,0,0-.2.12,20.821,20.821,0,0,1-.492,2.22v0.03a0.157,0.157,0,0,0,.18.13,0.212,0.212,0,0,0,.168-0.08,2.151,2.151,0,0,1,2.338-1.59c0.708,0,.8,0,0.852.3,0.048,0.34.048,1.57,0.048,1.76,0.012,0.41.012,0.94,0.012,1.49,0,0.76,0,1.57-.012,2.22-0.012,1.88-.036,1.9-1.283,2.1a0.27,0.27,0,0,0-.12.23,0.116,0.116,0,0,0,.12.13h0.024a11.556,11.556,0,0,1,1.523-.08c1.115,0,2.218.08,2.23,0.08a0.128,0.128,0,0,0,.132-0.14,0.3,0.3,0,0,0-.12-0.22c-1.271-.14-1.271-0.42-1.271-2.09,0-.66-0.012-1.75-0.012-2.62,0-2.2.06-2.75,0.072-2.85a0.275,0.275,0,0,1,.324-0.31c1.823,0,2.267.17,2.65,1.49a0.13,0.13,0,0,0,.132.08c0.18,0,.192-0.07.192-0.44v-0.68c0-.16-0.012-0.32-0.012-0.47A5.184,5.184,0,0,1,903.442,4813.95Zm11.736,8.57a1.313,1.313,0,0,1-1.055-.95,75.554,75.554,0,0,1-2.7-7.53,0.184,0.184,0,0,0-.144-0.18,0.285,0.285,0,0,0-.168.12,1.959,1.959,0,0,1-.671.56,0.184,0.184,0,0,0-.108.18,0.126,0.126,0,0,0,.012.07,0.731,0.731,0,0,1,.036.17,0.126,0.126,0,0,1-.012.07c-0.432,1.13-.9,2.49-1.32,3.71-1.115,3.19-1.295,3.66-2.182,3.79a0.286,0.286,0,0,0-.108.22,0.139,0.139,0,0,0,.144.15h0.036a6.336,6.336,0,0,1,1.079-.08,13.32,13.32,0,0,1,1.391.08,0.137,0.137,0,0,0,.132-0.15,0.266,0.266,0,0,0-.12-0.22c-0.515-.08-0.851-0.14-0.851-0.53a1.181,1.181,0,0,1,.024-0.18c0.06-.32.527-1.68,0.695-2.25a0.313,0.313,0,0,1,.36-0.24c0.372-.03.756-0.04,1.127-0.04,1.152,0,1.248.07,1.272,0.15a24.448,24.448,0,0,1,.827,2.62c0,0.3-.264.4-0.743,0.47a0.254,0.254,0,0,0-.12.22,0.118,0.118,0,0,0,.108.14h0.024a8.07,8.07,0,0,1,1.247-.08c0.888,0,1.715.08,1.715,0.08a0.165,0.165,0,0,0,.168-0.18A0.253,0.253,0,0,0,915.178,4822.52Zm-3.394-3.8a0.1,0.1,0,0,1-.1.07c-0.2.01-.612,0.01-1.019,0.01s-0.792,0-.972-0.01a0.154,0.154,0,0,1-.132-0.06,29.182,29.182,0,0,1,1.08-3.1,0.077,0.077,0,0,1,.048.05C910.944,4816.32,911.784,4818.66,911.784,4818.72Zm17.115-4.14a0.27,0.27,0,0,0,.1-0.19,0.144,0.144,0,0,0-.132-0.17h-0.012a8.934,8.934,0,0,1-1.211.07c-0.864,0-1.679-.07-1.679-0.07a0.135,0.135,0,0,0-.12.15,0.254,0.254,0,0,0,.1.21c1.331,0.15,1.307.71,1.319,2.05,0,0.33-.012,1.17-0.012,2.05,0,0.65.012,1.32,0.024,1.79v0.04c0,0.04,0,.06-0.024.06a0.1,0.1,0,0,1-.048-0.03c-0.671-.76-1.475-1.7-2.207-2.48a27.959,27.959,0,0,1-2.986-3.48c-0.12-.24-0.1-0.35-0.264-0.35h-0.024c-0.228.02-.515,0.04-0.791,0.04-0.612,0-1.212-.05-1.212-0.05a0.142,0.142,0,0,0-.156.15,0.278,0.278,0,0,0,.1.21,1.047,1.047,0,0,1,1.128.97c0,1.23.012,2.83,0.012,3.98,0,2.63-.048,2.88-1.1,3a0.26,0.26,0,0,0-.084.2c0,0.09.024,0.15,0.108,0.15h0.024a7.293,7.293,0,0,1,1.176-.07c0.863,0,1.691.08,1.691,0.08a0.139,0.139,0,0,0,.12-0.16,0.262,0.262,0,0,0-.1-0.2c-0.948-.14-1.164-0.2-1.272-1.73-0.048-.73-0.084-2.48-0.084-3.9,0-.38.012-0.74,0.012-1.04a0.051,0.051,0,0,1,.036-0.06,0.049,0.049,0,0,1,.036.03c0.852,1.01,2.267,2.57,3.323,3.76a35.111,35.111,0,0,1,2.59,3.13,0.428,0.428,0,0,0,.348.27h0.024a0.26,0.26,0,0,0,.264-0.3v-0.06c-0.108-1.12-.156-3.35-0.156-4.84,0-.49,0-0.91.012-1.16C927.82,4815.13,927.712,4814.71,928.9,4814.58Zm8.108,0a0.254,0.254,0,0,0,.108-0.21,0.136,0.136,0,0,0-.108-0.15h-0.024a11.577,11.577,0,0,1-1.379.07c-1,0-1.943-.07-1.955-0.07a0.124,0.124,0,0,0-.12.14,0.259,0.259,0,0,0,.108.22c1.091,0.11,1.091.31,1.1,2.02,0,0.72,0,3.55-.012,3.6-0.024,1.02.072,3.51-.479,4.28a0.555,0.555,0,0,1-.444.29,1.29,1.29,0,0,1-.54-0.19,0.7,0.7,0,0,0-1.019.68,0.448,0.448,0,0,0,.539.44,2.735,2.735,0,0,0,1.907-.86c1.272-1.28,1.284-2.79,1.284-4.88,0-.48-0.024-2.67-0.036-3.36v-0.44C935.94,4814.82,936.12,4814.67,937.007,4814.58Zm8.07,7.95c-1.079-.12-1.019-0.49-1.043-1.78-0.012-.71-0.024-1.67-0.024-2.6,0-.67,0-1.33.024-1.86,0.036-1.35-.084-1.59,1.019-1.71a0.218,0.218,0,0,0,.12-0.21,0.135,0.135,0,0,0-.12-0.15h-0.012a12.426,12.426,0,0,1-1.4.07c-0.971,0-1.883-.07-1.883-0.07a0.137,0.137,0,0,0-.132.15,0.254,0.254,0,0,0,.108.21c1.1,0.11,1.031.18,1.079,1.74,0.024,0.42.024,1.23,0.024,2.1s0,1.76-.024,2.33c-0.036,1.34.084,1.66-1.031,1.78a0.322,0.322,0,0,0-.108.23,0.114,0.114,0,0,0,.108.13h0.036a8.179,8.179,0,0,1,1.379-.08c0.936,0,1.859.07,1.871,0.07a0.13,0.13,0,0,0,.12-0.15A0.264,0.264,0,0,0,945.077,4822.53Zm19.21-8.58v-0.01a0.153,0.153,0,0,0-.168-0.12,0.207,0.207,0,0,0-.12.05c-0.312.37-.984,0.43-3.514,0.43-0.792,0-1.619,0-2.411-.01a1.255,1.255,0,0,1-1.139-.38,0.166,0.166,0,0,0-.156-0.08,0.187,0.187,0,0,0-.2.12,20.821,20.821,0,0,1-.492,2.22v0.03a0.157,0.157,0,0,0,.18.13,0.212,0.212,0,0,0,.168-0.08,2.152,2.152,0,0,1,2.339-1.59c0.707,0,.8,0,0.851.3,0.048,0.34.048,1.57,0.048,1.76,0.012,0.41.012,0.94,0.012,1.49,0,0.76,0,1.57-.012,2.22-0.012,1.88-.036,1.9-1.283,2.1a0.27,0.27,0,0,0-.12.23,0.116,0.116,0,0,0,.12.13h0.024a11.565,11.565,0,0,1,1.523-.08c1.115,0,2.219.08,2.231,0.08a0.128,0.128,0,0,0,.132-0.14,0.3,0.3,0,0,0-.12-0.22c-1.271-.14-1.271-0.42-1.271-2.09,0-.66-0.012-1.75-0.012-2.62,0-2.2.06-2.75,0.072-2.85a0.275,0.275,0,0,1,.323-0.31c1.823,0,2.267.17,2.651,1.49a0.13,0.13,0,0,0,.132.08c0.18,0,.192-0.07.192-0.44v-0.68c0-.16-0.012-0.32-0.012-0.47A5.184,5.184,0,0,1,964.287,4813.95Zm11.735,8.57a1.314,1.314,0,0,1-1.055-.95c-2.375-6.26-2.591-7.04-2.7-7.53a0.184,0.184,0,0,0-.144-0.18,0.285,0.285,0,0,0-.168.12,1.961,1.961,0,0,1-.672.56,0.184,0.184,0,0,0-.108.18,0.126,0.126,0,0,0,.012.07,0.731,0.731,0,0,1,.036.17,0.126,0.126,0,0,1-.012.07c-0.432,1.13-.9,2.49-1.319,3.71-1.116,3.19-1.295,3.66-2.183,3.79a0.286,0.286,0,0,0-.108.22,0.139,0.139,0,0,0,.144.15h0.036a6.352,6.352,0,0,1,1.079-.08,13.352,13.352,0,0,1,1.392.08,0.137,0.137,0,0,0,.132-0.15,0.266,0.266,0,0,0-.12-0.22c-0.516-.08-0.852-0.14-0.852-0.53a1.181,1.181,0,0,1,.024-0.18c0.06-.32.528-1.68,0.7-2.25a0.313,0.313,0,0,1,.36-0.24c0.371-.03.755-0.04,1.127-0.04,1.151,0,1.247.07,1.271,0.15a24.456,24.456,0,0,1,.828,2.62c0,0.3-.264.4-0.744,0.47a0.254,0.254,0,0,0-.12.22,0.118,0.118,0,0,0,.108.14h0.024a8.078,8.078,0,0,1,1.247-.08c0.888,0,1.716.08,1.716,0.08a0.165,0.165,0,0,0,.167-0.18A0.253,0.253,0,0,0,976.022,4822.52Zm-3.394-3.8a0.1,0.1,0,0,1-.1.07c-0.2.01-.611,0.01-1.019,0.01s-0.792,0-.972-0.01a0.153,0.153,0,0,1-.131-0.06,29.176,29.176,0,0,1,1.079-3.1,0.077,0.077,0,0,1,.048.05C971.789,4816.32,972.628,4818.66,972.628,4818.72Zm16.1,3.8a1.959,1.959,0,0,1-1.211-.73c-0.984-1-2.471-2.92-3.37-3.95a0.2,0.2,0,0,1-.036-0.11,0.169,0.169,0,0,1,.072-0.14c0.575-.45,1.847-1.64,2.878-2.42a3.776,3.776,0,0,1,1.247-.57,0.25,0.25,0,0,0,.12-0.21,0.151,0.151,0,0,0-.132-0.17h-0.023a7.227,7.227,0,0,1-1.164.07c-0.731,0-1.4-.06-1.4-0.06a0.14,0.14,0,0,0-.132.16,0.281,0.281,0,0,0,.108.2c0.24,0.01.612,0.07,0.612,0.28a0.393,0.393,0,0,1-.144.25c-2.855,2.85-3.131,2.86-3.191,2.86-0.12,0-.12-0.02-0.12-1.14,0-2.06.012-2.13,1.008-2.26a0.3,0.3,0,0,0,.108-0.22,0.118,0.118,0,0,0-.108-0.14h-0.024a9.514,9.514,0,0,1-1.379.07c-0.924,0-1.823-.06-1.835-0.06a0.132,0.132,0,0,0-.12.16,0.249,0.249,0,0,0,.1.2c1.043,0.1,1.031.24,1.055,1.61,0.012,0.42.012,1.47,0.012,2.54,0,0.78,0,1.58-.012,2.13-0.012,1.28,0,1.53-1.019,1.66a0.286,0.286,0,0,0-.108.22,0.126,0.126,0,0,0,.12.14h0.024a7.112,7.112,0,0,1,1.319-.1c0.923,0,1.859.09,1.871,0.09h0.012a0.139,0.139,0,0,0,.12-0.16,0.281,0.281,0,0,0-.108-0.2c-0.948-.12-1.008-0.25-1.02-1.66-0.012-.47-0.012-1.8-0.012-2.08a0.232,0.232,0,0,1,.18-0.27c0.108,0,.12.01,1.536,1.7,1.427,1.73,1.523,1.91,1.523,2.04,0,0.18-.252.26-0.552,0.27a0.25,0.25,0,0,0-.12.21,0.13,0.13,0,0,0,.12.15h0.024a7.142,7.142,0,0,1,1.235-.09c0.924,0,1.9.09,1.9,0.09h0.012a0.13,0.13,0,0,0,.132-0.15A0.278,0.278,0,0,0,988.724,4822.52Zm13.176-7.93a0.3,0.3,0,0,0,.11-0.22,0.12,0.12,0,0,0-.11-0.14h-0.02a8.542,8.542,0,0,1-1.17.06c-0.813,0-1.605-.06-1.605-0.06a0.14,0.14,0,0,0-.132.16,0.249,0.249,0,0,0,.12.2c1.2,0.13,1.187.3,1.257,2.16,0.01,0.37.03,0.75,0.03,1.14,0,0.48-.02.96-0.03,1.41-0.06,2.49-1.305,3.04-2.624,3.04-2,0-2.4-1.54-2.411-3.19,0-.79,0-1.91.036-2.65,0.072-1.79.012-1.8,1.128-1.93a0.237,0.237,0,0,0,.108-0.21,0.135,0.135,0,0,0-.12-0.15h-0.012a15.816,15.816,0,0,1-1.667.08c-0.912,0-1.667-.06-1.739-0.06a0.12,0.12,0,0,0-.12.14,0.272,0.272,0,0,0,.108.22c0.947,0.08,1.031.26,1.031,1.31v0.61c0,0.72-.012,1.87-0.024,2.72v0.11c0,2.15,1.056,3.71,3.466,3.71,2.135,0,3.42-1.22,3.44-3.73,0-1.08,0-1.74-.01-2.58v-0.31C1000.94,4814.87,1001.13,4814.69,1001.9,4814.59Zm15.61-.01a0.2,0.2,0,0,0,.11-0.18,0.155,0.155,0,0,0-.13-0.18h-0.02a7.935,7.935,0,0,1-1.21.08c-0.26,0-.54-0.01-0.8-0.03h-0.04a0.178,0.178,0,0,0-.19.15c-0.11.48-3.12,6.35-3.2,6.35a0.113,0.113,0,0,1-.07-0.08c-0.51-1.21-1.79-3.31-2.65-5.45-0.06-.16-0.27-0.65-0.3-0.79-0.03-.17-0.05-0.24-0.16-0.24a0.264,0.264,0,0,0-.07.01,4.616,4.616,0,0,1-.88.06c-0.64,0-1.29-.06-1.29-0.06a0.157,0.157,0,0,0-.17.17,0.242,0.242,0,0,0,.1.19c0.87,0.12,1.32.39,1.32,1.15,0,0.06-.02.12-0.02,0.18-0.08,1.08-.26,3.72-0.28,4.28-0.12,1.73-.26,2.23-1.18,2.33a0.261,0.261,0,0,0-.11.21,0.125,0.125,0,0,0,.12.15h0.03a6.6,6.6,0,0,1,1.12-.09,13.691,13.691,0,0,1,1.5.09h0.02a0.168,0.168,0,0,0,.14-0.18,0.21,0.21,0,0,0-.1-0.18c-1.03-.16-1.03-0.28-1.03-2.45a32.881,32.881,0,0,1,.25-3.96,0.212,0.212,0,0,1,.09.14c0.45,1,1.15,2.43,1.68,3.49a21.091,21.091,0,0,1,1.16,2.57,0.37,0.37,0,0,0,.26.35,0.375,0.375,0,0,0,.34-0.32c0.53-1.13,3.13-6.33,3.26-6.33,0.01,0,.03.01,0.03,0.06v0.02c-0.02.34-.02,0.81-0.02,1.35,0,1.19.02,2.65,0.03,3.25v0.29c0,1.18-.1,1.41-1.08,1.54a0.261,0.261,0,0,0-.11.21,0.13,0.13,0,0,0,.11.15h0.02a8.6,8.6,0,0,1,1.33-.09c0.98,0,1.95.09,1.95,0.09a0.177,0.177,0,0,0,.14-0.18,0.224,0.224,0,0,0-.11-0.18c-1.06-.16-1-0.65-1.05-2.04-0.03-.83-0.05-1.97-0.05-3C1016.3,4815.02,1016.31,4814.73,1017.51,4814.58Zm8,7.95c-1.08-.12-1.02-0.49-1.04-1.78-0.01-.71-0.02-1.67-0.02-2.6,0-.67,0-1.33.02-1.86,0.04-1.35-.08-1.59,1.02-1.71a0.225,0.225,0,0,0,.12-0.21,0.137,0.137,0,0,0-.12-0.15h-0.01a12.553,12.553,0,0,1-1.41.07c-0.97,0-1.88-.07-1.88-0.07a0.137,0.137,0,0,0-.13.15,0.237,0.237,0,0,0,.11.21c1.1,0.11,1.03.18,1.08,1.74,0.02,0.42.02,1.23,0.02,2.1s0,1.76-.02,2.33c-0.04,1.34.08,1.66-1.04,1.78a0.319,0.319,0,0,0-.1.23,0.11,0.11,0,0,0,.1.13h0.04a8.2,8.2,0,0,1,1.38-.08c0.94,0,1.86.07,1.87,0.07a0.131,0.131,0,0,0,.12-0.15A0.273,0.273,0,0,0,1025.51,4822.53Z" transform="translate(-874.625 -4719.38)"/>
</svg>
