<svg xmlns="http://www.w3.org/2000/svg" width="236.409" height="103.62"><path data-name="staff/name3.svg" d="M89.831 3.57a.3.3 0 00-.132-.02 4.139 4.139 0 00-1.3 1.43.472.472 0 01-.352.22H82.26a19.5 19.5 0 001.584-2.33.709.709 0 01.616-.49c.528-.11.77-.24.77-.44 0-.44-2.112-1.54-2.442-1.54-.088 0-.088.07-.11.2-.308 2.29-2.971 6.62-5.215 8.87.066-2.75.088-2.86.44-3.02a.574.574 0 00.418-.41 1.288 1.288 0 00-1.034-.51 27.5 27.5 0 001.65-2.55.773.773 0 01.594-.51c.484-.09.7-.24.7-.42 0-.55-2.42-1.49-2.508-1.49-.066 0-.044.06-.066.19-.374 2.82-4 8.3-5.985 10.1a1.149 1.149 0 00-.374.42c0 .02.022.02.044.02.154 0 2.09-.94 4.555-3.96 0 .49.022.99.022 1.35-.044 2.92-.2 7.39-.462 10.29v.14a.726.726 0 00.77.81 1.075 1.075 0 001.122-.97v-.04c-.022-.64-.022-1.41-.022-2.2 0-2.2.044-4.82.11-6.96a16.329 16.329 0 004.4-4h1.188c.066.73.088 1.83.088 2.27.022.74.022 1.76.022 2.9 0 2.66-.044 5.98-.22 8.16v.11a.714.714 0 00.77.77 1.008 1.008 0 001.078-.92v-.02c-.044-1.35-.088-3.02-.11-4.71h5.677c.352 0 .44-.13.44-.29 0-.61-1.65-1.78-2-1.78a3.663 3.663 0 00-1.189 1.3.433.433 0 01-.33.22h-2.6c-.022-1.26-.022-2.51-.022-3.59h5.611c.352 0 .44-.13.44-.28 0-.55-1.584-1.79-1.98-1.79a3.663 3.663 0 00-1.189 1.3.433.433 0 01-.33.22h-2.552c0-2.92.022-3.08.352-3.21a.561.561 0 00.418-.42.292.292 0 00-.22-.24h6.183c.352 0 .462-.13.462-.29.009-.46-1.267-1.6-1.993-1.89zm22.219 11.44c-.088-1.87-.176-4.73-.176-6.36 0-.35.022-.66.022-.88a.607.607 0 01.418-.74.783.783 0 00.484-.53 3.364 3.364 0 00-1.8-1.34.362.362 0 00-.242.13 5.7 5.7 0 00-.462.57.344.344 0 01-.286.13h-1.848c0-2.62.022-2.77.242-2.86a.527.527 0 00.374-.4.559.559 0 00-.374-.28h8.009c.374 0 .484-.13.484-.27a4.3 4.3 0 00-2.046-1.93.3.3 0 00-.132-.02 4.3 4.3 0 00-1.343 1.47.418.418 0 01-.352.2h-7.855c-1.276 0-5.082-.09-7.3-.35a1.7 1.7 0 001.012 1.14h.022c1.937-.2 4.951-.24 6.183-.24h1.43c.089.68.067 2.13.089 2.64 0 .22.022.53.022.9h-1.726l-.044-.04a9.712 9.712 0 00-2.112-.97c-.022 0-.044.02-.044.07a.4.4 0 00.022.13 17.938 17.938 0 01.242 2.64v1.47c0 1.72-.022 4.23-.154 6.21v.06a.624.624 0 00.682.64.867.867 0 00.924-.75v-.83h6.029v.55a.64.64 0 00.7.68.872.872 0 00.9-.79v-.05zm3.873 4.07c-.132-2.66-.22-6.22-.22-8.82 0-3.1.022-3.26.462-3.52a.811.811 0 00.506-.53c0-.55-2.772-1.03-2.816-1.03s-.066.02-.066.09a.4.4 0 00.022.13 47.568 47.568 0 01.4 8.09c0 1.37-.022 2.75-.044 4.07h-13.492c0-3.41.066-8.6.154-10.07a.681.681 0 01.374-.75.759.759 0 00.506-.53c0-.5-2.465-1.03-2.729-1.03-.044 0-.066.02-.066.09a.4.4 0 00.022.13 26.044 26.044 0 01.286 5.34c0 2.8-.11 5.79-.286 8.45v.09a.636.636 0 00.705.68.975.975 0 001.034-.83v-.99h13.466c0 .35-.022.7-.022 1.03v.02a.709.709 0 00.77.75.961.961 0 001.034-.83v-.03zm-7.811-5.01v-3.72h2.376c0 1.23-.044 2.55-.044 3.72h-2.332zm-3.719 0c-.022-1.19-.022-2.51-.022-3.72h2.289c0 1.56-.022 3.01-.022 3.72h-2.245zm3.719-4.27V6.54h2.024a.273.273 0 01.308.29c.022.61.044 1.71.044 2.97h-2.376zm-1.452 0h-2.289c0-2.8 0-2.93.33-3.15l.154-.11h1.805V9.8zm34.145 7.24c-.22 0-.352.19-1.078 1.41a.482.482 0 01-.374.19h-.507c-.022-.92-.066-1.78-.066-2.55 0-1.17 0-1.36.441-1.61a.656.656 0 00.418-.48c0-.46-1.629-1.28-1.8-1.28a.332.332 0 00-.22.14 6.172 6.172 0 00-.484.52.3.3 0 01-.264.14h-7.811l-.11-.07a9.842 9.842 0 00-2.112-.92c-.044 0-.044 0-.044.04a.366.366 0 00.022.13 19.458 19.458 0 01.264 4.03c0 .57 0 1.23-.022 1.85a53.481 53.481 0 01-3.917-.29 1.673 1.673 0 001.034 1.15h.022c1.981-.2 4.8-.25 6.007-.25h12.115c.374 0 .484-.11.484-.24a3.864 3.864 0 00-1.998-1.91zm-8.6-7.11c-.265 0-.419.2-.969.95a.388.388 0 01-.33.15h-1.342c0-2.05 0-2.05.286-2.22a.405.405 0 00.242-.27.205.205 0 00-.132-.15h1.122v.2a.548.548 0 00.616.53.743.743 0 00.793-.62v-.04c-.044-.47-.088-1.9-.088-2.18 0-.38 0-.27.44-.53a.539.539 0 00.308-.37c0-.36-1.409-1.04-1.585-1.04a1.287 1.287 0 00-.616.51.342.342 0 01-.286.15h-1.1c0-1.72 0-1.74.286-1.87a.4.4 0 00.264-.26.184.184 0 00-.176-.18l-.2-.04h3.455c.352 0 .462-.16.462-.29a3.537 3.537 0 00-1.629-1.43 1.037 1.037 0 00-.11-.02c-.242 0-.374.17-.968 1.01a.42.42 0 01-.286.18h-4l-.088-.07a12.686 12.686 0 00-2.069-.95.063.063 0 00-.066.07c0 .04.022.07.022.13a18.184 18.184 0 01.242 2.8c0 1.36-.022 5.98-.22 8.42v.07a.584.584 0 00.683.57.914.914 0 00.99-.7v-.86h7.195c.4 0 .528-.15.528-.31a2.813 2.813 0 00-1.677-1.34zm8.537-6.71c-.044 0-.11-.02-.154-.02-.264 0-.4.15-1.166 1.3a.445.445 0 01-.33.17h-2.927c.462-.75.858-1.47 1.144-2.05a.527.527 0 01.44-.41.636.636 0 00.638-.42c0-.46-2.266-1.17-2.464-1.17-.044 0-.066.02-.066.22 0 2.66-2.574 7.09-2.618 7.15a1.284 1.284 0 00-.264.51c0 .02 0 .02.022.02.132 0 1.32-.92 2.816-3.28h6.315c.374 0 .484-.13.484-.26a3.457 3.457 0 00-1.873-1.76zm-9.66 4.62h-4.95c0-.79.022-1.58.022-2.27h4.665a.222.222 0 01.264.22v2.05zm6.205 10.8h-2v-.68c0-3.06 0-3.23.264-3.32a.539.539 0 00.374-.35.239.239 0 00-.154-.2h1.276a.216.216 0 01.242.24c.022.44.022 1.14.022 1.94s-.005 1.65-.027 2.37zm-3.41 0h-2v-.68c0-3.06 0-3.23.265-3.32a.539.539 0 00.374-.35.239.239 0 00-.154-.2h1.474c.066.53.066 2.15.066 2.73-.006.61-.006 1.3-.028 1.82zm-3.411 0h-.176c-.374 0-.99 0-1.716-.02v-3.67c.022-.51.022-.55.286-.73a1.546 1.546 0 00.2-.13h1.359c.066.53.066 2.15.066 2.73 0 .61 0 1.3-.022 1.82zM140.5 7.73a.3.3 0 00-.132-.02c-.11 0-.308.04-1.144 1.3a.4.4 0 01-.309.17h-.55a30.694 30.694 0 01-4.488-.31 1.686 1.686 0 00.924 1.06h.018a26.718 26.718 0 013.476-.2h3.653c.374 0 .462-.11.462-.22a3.8 3.8 0 00-1.913-1.78zm-12.256 3.3h-2.115V8.39h2.024a6.193 6.193 0 01.066.95c0 .35.022 1.21.022 1.69zm0-6.03h-2.09c0-2.02 0-2.09.33-2.24l.22-.11h1.452a6.75 6.75 0 01.066.99c-.003.31.019.94.019 1.36zm35.908 13.95c-.09-1.43-.2-3.54-.2-5.13 0-1.51.04-1.54.44-1.78a.771.771 0 00.48-.55c0-.57-1.71-1.32-1.8-1.32-.22 0-.26.07-.86.73a.313.313 0 01-.28.13h-6.738a16.744 16.744 0 00-1.848-.88 1.741 1.741 0 001.65-1.69v-.05c0-.28-.066-.64-.066-.88-.022-.26-.022-.64-.022-.9a1.6 1.6 0 01.22-1.06.459.459 0 00.418-.3.19.19 0 00-.132-.16h3.345c.352 0 .44-.13.44-.26 0-.64-1.452-1.5-1.629-1.5a2.509 2.509 0 00-.9 1.06.366.366 0 01-.286.17h-1.672c0-.48-.022-1.14-.022-1.71h3.029a.323.323 0 00.4-.31 3.06 3.06 0 00-1.409-1.39.469.469 0 00-.176-.02 2.108 2.108 0 00-.792.99.352.352 0 01-.242.18h-.792v-.36c.022-.7.088-.63.44-.81a.638.638 0 00.418-.4c0-.48-2.4-.74-2.486-.74a.045.045 0 00-.044.04.366.366 0 00.022.13 10.125 10.125 0 01.22 2.11c0 .11.022 1.02.022 1.77v.52h-.572a22.765 22.765 0 01-3.763-.3 1.708 1.708 0 00.88 1.05h.022a19.433 19.433 0 012.817-.22h.814a16.519 16.519 0 01.11 2.2c0 1.39-.088 1.54-1.056 1.54a10.041 10.041 0 01-1.584-.15h-.066a10.859 10.859 0 001.276-1.39.363.363 0 01.352-.22c.33-.02.484-.13.484-.28a3.743 3.743 0 00-1.826-.99c-.066 0-.066.06-.066.17a8.448 8.448 0 01-2.993 4.23.946.946 0 00-.264.24.045.045 0 00.044.04 8.346 8.346 0 002.905-1.71 3.728 3.728 0 011.694 1.16.371.371 0 00.374.27 16.684 16.684 0 01.264 2.5c0 1.48-.022 4.07-.176 6.41v.06a.684.684 0 00.77.69.925.925 0 001.012-.75v-.02c0-.22-.022-.49-.022-.77h7.68c0 .28-.02.57-.02.83a.641.641 0 00.72.66.977.977 0 001.04-.83v-.05zm-1.52-16.92a33.232 33.232 0 01-4.489-.26 1.651 1.651 0 00.946 1.01h.022c.286-.05.572-.07.831-.09a9.408 9.408 0 001.79 3.76 12.657 12.657 0 01-5.328 3.55 1.208 1.208 0 00-.66.33.15.15 0 00.132.02 11.929 11.929 0 006.606-2.99 9.119 9.119 0 004.18 2.61.455.455 0 00.37-.19c.57-.64 2.16-1.04 2.16-1.19 0-.05-.05-.07-.18-.07a11.147 11.147 0 01-5.72-1.93 17.941 17.941 0 002.33-3.13.623.623 0 01.57-.37.541.541 0 00.47-.44c0-.42-1.21-1.13-1.43-1.21a.411.411 0 00-.16-.05 1.307 1.307 0 00-.61.51.36.36 0 01-.33.13h-1.5zm-.2 13.8c0 .66-.02 1.34-.02 1.95h-7.68c0-.61-.022-1.29-.022-1.95h7.722zm-.28-4.25a.252.252 0 01.26.26c.02.38.02.82.02 1.35h-7.744c0-.31.022-.53.022-.71a.771.771 0 01.33-.77l.176-.13h6.936zm.28 3.67h-7.744v-1.49h7.744v1.49zm1.56-12.67a.147.147 0 01.18.15 12.608 12.608 0 01-1.85 3.04 9.162 9.162 0 01-2.05-3.1c.84-.07 1.59-.09 2.23-.09h1.49zm-6.4 6.01a.787.787 0 00.749-.82c0-.99-1.321-1.54-2.751-1.58a.267.267 0 00-.242.04.669.669 0 00.2.18 4.51 4.51 0 011.254 1.56.949.949 0 00.787.62zM40.01 72.45c-.85 0-3.2 3.7-3.25 3.8a.947.947 0 01-.8.45H24.606c-.1-4.55-.1-11.9-.1-18.65h15.2c.85 0 1.05-.3 1.05-.6 0-.65-2.8-4.05-4.55-4.65-.1 0-.25-.05-.35-.05-.25 0-1.05.15-3.15 3.6a1.018 1.018 0 01-.8.45h-7.4c0-5.9.05-11.2.2-13.65.1-1.85.3-1.55 1.2-2.1a1.819 1.819 0 001.05-1.25c0-1.3-6.4-2.05-6.95-2.05-.1 0-.15.05-.15.2a.88.88 0 00.05.3c.45 2.15.7 5.6.7 18.55h-.8c-2.85 0-10.6-.2-15.651-.8 0 .65 1.45 2.6 2.35 2.6h.05c4.4-.45 10.3-.55 13.051-.55h1c0 6.35-.05 13.6-.15 18.65h-3c-2.9 0-12.4-.2-17.451-.8 0 .65 1.5 2.55 2.4 2.55h.05c4.4-.45 12-.5 14.8-.5h26.8c.85 0 1.1-.3 1.1-.6.003-.7-3.598-4.9-5.148-4.9zM99.04 40.3a.717.717 0 01.85.75c.05.55.05 1.35.05 2.25s0 1.85-.05 2.75H75.535c0-.7 0-1.3-.05-1.9-.05-.75-.05-1.3-.05-1.7 0-.95.15-1.35 1.351-2.15h22.251zm8.2 38.1c.8 0 1.05-.3 1.05-.65 0-1.4-3.95-4.3-4.8-4.3-.6 0-2.3 2.55-2.75 3.25a1.018 1.018 0 01-.8.45h-8.451c0-1.5-.05-3.95-.05-6.15h11.451c.8 0 1-.3 1-.6 0-1.35-3.65-4.05-4.6-4.05-.5 0-1.65 1.5-2.6 2.95a1.018 1.018 0 01-.8.45h-4.4c0-.9 0-1.65.05-2.25.1-1.45.3-1.3 1.1-1.7a1.4 1.4 0 00.9-.9c0-.95-5.7-1.75-5.951-1.75a.108.108 0 00-.1.1.544.544 0 00.05.25 25.916 25.916 0 01.5 5.1c0 .3.05.7.05 1.15-3.1-.05-8.1-.3-12.2-.8 0 .65 1.451 2.6 2.351 2.6h.05c3.6-.4 7.2-.5 9.8-.55v6.15h-.9c-2.7 0-11.3-.2-16.151-.8 0 .65 1.35 2.6 2.25 2.6h.05c4.251-.45 11-.55 13.6-.55h20.3zm-3.25-31.15a41 41 0 01-.35-4.15c0-1.05.25-1.2 1.15-1.65.75-.4 1.2-.75 1.2-1.25 0-1.35-4.3-3.35-4.6-3.35-.2 0-.6.2-1.8 1.7a1.232 1.232 0 01-.85.5h-22l-.15-.15c-1.051-.6-4.951-2.35-5.9-2.35-.1 0-.1.05-.1.15a1.126 1.126 0 00.05.35 75.947 75.947 0 011 13c0 9.25-1.45 21.25-7.65 28.05a3.111 3.111 0 00-.85 1.2c0 .05.05.05.1.05.3 0 12.3-5.75 12.3-31.55v-.45h24.3v.25a1.663 1.663 0 001.8 1.75 2.183 2.183 0 002.35-1.9v-.2zm.6 6.1c.8 0 1-.25 1-.55 0-.85-2.35-2.75-4-3.4-.1 0-.2-.05-.35-.05-.5 0-.85.35-2.4 2.45a.8.8 0 01-.7.4h-6.6c-2.5 0-11-.2-15.05-.75 0 .65 1.4 2.45 2.2 2.45h.05c1.5-.15 4.25-.3 6.85-.4a10.1 10.1 0 01-.15 1.65 47.288 47.288 0 01-1.1 5.1c-1.45.05-2.85.1-4.15.1a25.188 25.188 0 01-3.8-.4c-.25-.05-.4-.1-.451-.1a.108.108 0 00-.1.1c0 .3 1.751 4.4 2.451 4.4.35 0 .65-.55 1.05-.6a196.844 196.844 0 0019.7-3.6 14.732 14.732 0 011.8 2.35 2.621 2.621 0 002.15 1.6 1.885 1.885 0 001.75-2.05c0-4.25-9.65-6.7-10.75-6.7-.15 0-.25.05-.25.15a.78.78 0 00.35.4 35.446 35.446 0 014.05 3.3c-3.85.4-8.1.8-12.051 1 1.1-1.55 2.45-3.8 3.1-4.9a1.237 1.237 0 01.95-.75c.85-.1 1.25-.4 1.25-.65a.578.578 0 00-.5-.45.712.712 0 01-.2-.1h13.9zm44.889 8.6a1.71 1.71 0 00.55-.05 23.9 23.9 0 01-4.5 2.3 4.093 4.093 0 00-1.65.9c0 .05.1.05.25.05.9 0 8.6-1.1 15.4-8.15 4.1 5.25 8.1 6.9 8.552 6.9a1.08 1.08 0 00.7-.3c1.75-1.55 5.7-2.05 5.7-2.35a.6.6 0 00-.4-.15 23.1 23.1 0 01-12.5-6.45 34.6 34.6 0 005.4-10.15c.25-.7.6-.8 1.5-1.15a1.132 1.132 0 00.95-.9c0-.85-3.05-3.05-3.9-3.05a.806.806 0 00-.45.15 7.623 7.623 0 00-1.1 1.1 1.066 1.066 0 01-.75.35h-3a93.9 93.9 0 01-9.6-.5 10.5 10.5 0 00-3.6-2.75 2.166 2.166 0 00-.25-.05c-.55 0-.85.4-2.2 2.3a.857.857 0 01-.6.4h-7.951a26.71 26.71 0 00-4.8-2.25.082.082 0 00-.1.1c0 .1.05.15.05.3a39.552 39.552 0 01.55 6.2c0 3-.1 16.05-.45 19.5v.15a1.24 1.24 0 001.45 1.25c1 0 2.2-.65 2.2-1.6v-2.1h14.551zm21.353 17c.85 0 1.05-.3 1.05-.65 0-.85-3.4-4.3-4.9-4.3-.35 0-1.05.55-2.9 3.25a1.114 1.114 0 01-.85.45h-11.056v-6.1h13.7c.85 0 1.05-.3 1.05-.65 0-1.45-3.9-4.1-4.8-4.1-.5 0-1.4 1.3-2.7 3.05a1.114 1.114 0 01-.85.45h-6.4c0-2.5.05-2.55 1.2-3.1a1.346 1.346 0 00.95-.85c0-.85-5.45-1.75-6.2-1.75a.108.108 0 00-.1.1.88.88 0 00.05.3 24.657 24.657 0 01.55 5v.3h-.55a141.878 141.878 0 01-14.351-.8c0 .65 1.45 2.55 2.35 2.55h.05c4.3-.45 9-.5 11.7-.5h.8v6.1h-2.8c-2.8 0-12.051-.2-17-.8 0 .65 1.45 2.6 2.35 2.6h.05c4.3-.45 11.7-.55 14.4-.55h25.2zm-21.753-24.1c-.1-1.05-.25-4.3-.25-4.95 0-.85 0-.6 1-1.2a1.133 1.133 0 00.7-.8c0-.95-3.25-2.4-3.6-2.4a2.926 2.926 0 00-1.4 1.15.873.873 0 01-.7.35h-2.4c0-3.9.1-4.05.7-4.3a.81.81 0 00.55-.6.641.641 0 00-.5-.45h6.5a1.1 1.1 0 00.4-.05 2.957 2.957 0 001.45 1.05h.05l1.75-.15a32.135 32.135 0 004.5 12 29.787 29.787 0 01-7.3 7.1.544.544 0 00.05-.25c0-.65-1.85-2.5-3.2-3-.1 0-.2-.05-.35-.05a.568.568 0 00-.4.15 8.487 8.487 0 00-1.6 1.9.725.725 0 01-.65.35h-1.95c0-4.55.05-4.7.7-5.05a.974.974 0 00.55-.55.528.528 0 00-.4-.4h2.5v.45a1.265 1.265 0 001.4 1.2 1.747 1.747 0 001.9-1.4v-.1zm-3.9-6.55a.552.552 0 01.65.5 19.467 19.467 0 01.05 1.95c0 .85 0 1.85-.05 2.7h-10.9V48.3h10.251zm17.9-6.05c.25 0 .35.05.35.25a33.314 33.314 0 01-4.052 9.7 32.322 32.322 0 01-5.3-9.75c2.2-.15 4.451-.2 5.8-.2h3.2zM134.925 60.7v-6h4.351a13.686 13.686 0 01.2 2.15c0 .8.05 2.75.05 3.85h-4.6zm4.551-13.7h-4.5c0-4.7 0-4.8.7-5.1a2.3 2.3 0 00.5-.25h3.1a13.786 13.786 0 01.2 2.2V47zm95.773 12.8c.9 0 1.15-.4 1.15-.75 0-1.3-3.7-4.65-5.2-5.15a.741.741 0 00-.35-.05.9.9 0 00-.55.15 26.687 26.687 0 00-3 3.85 1.037 1.037 0 01-.85.45h-14.2c-3 0-14.9-.2-20.2-.85 0 .65 1.6 2.9 2.55 2.9h.05c4.65-.45 14.45-.55 17.35-.55h23.25zm-195.1 34.71v-.01a.153.153 0 00-.168-.12.207.207 0 00-.12.05c-.312.37-.984.43-3.514.43-.792 0-1.619 0-2.411-.01a1.255 1.255 0 01-1.139-.38.166.166 0 00-.156-.08.187.187 0 00-.2.12 20.821 20.821 0 01-.492 2.22v.03a.157.157 0 00.18.13.212.212 0 00.168-.08 2.152 2.152 0 012.339-1.59c.707 0 .8 0 .851.3.048.34.048 1.57.048 1.76.012.41.012.94.012 1.49 0 .76 0 1.57-.012 2.22-.012 1.88-.036 1.9-1.283 2.1a.27.27 0 00-.12.23.116.116 0 00.12.13h.024a11.565 11.565 0 011.523-.08c1.115 0 2.219.08 2.231.08a.128.128 0 00.132-.14.3.3 0 00-.12-.22c-1.271-.14-1.271-.42-1.271-2.09 0-.66-.012-1.75-.012-2.62 0-2.2.059-2.75.071-2.85a.275.275 0 01.324-.31c1.823 0 2.267.17 2.651 1.49a.13.13 0 00.132.08c.18 0 .192-.07.192-.44v-.68c0-.16-.012-.32-.012-.47a5.184 5.184 0 01.03-.69zm9.391 6.55a3.3 3.3 0 00-1.763-2.7c-1.127-.68-1.823-1.15-1.823-1.99a1.382 1.382 0 011.487-1.38 1.692 1.692 0 011.643 1.46.093.093 0 00.1.04.269.269 0 00.24-.1 9.806 9.806 0 00-.228-1.47c-.048-.15-.06-.17-.2-.17a11.413 11.413 0 00-1.391-.13h-.046c-1.283 0-2.662.63-2.662 2.16a3.052 3.052 0 001.715 2.47c1.223.79 1.763 1.25 1.763 2.18a1.66 1.66 0 01-1.691 1.8c-.4 0-1.548-.12-1.919-1.92a.148.148 0 00-.144-.06.168.168 0 00-.192.11v.01c0 .16.108 1.17.12 1.49a.282.282 0 00.2.31 4.225 4.225 0 001.919.44 2.662 2.662 0 002.87-2.55zm13.42-5.91a.286.286 0 00.108-.22.118.118 0 00-.108-.14h-.024a8.429 8.429 0 01-1.163.06c-.816 0-1.608-.06-1.608-.06a.14.14 0 00-.132.16.249.249 0 00.12.2c1.2.13 1.188.3 1.26 2.16.012.37.024.75.024 1.14 0 .48-.012.96-.024 1.41-.06 2.49-1.308 3.04-2.627 3.04-2 0-2.4-1.54-2.411-3.19 0-.79 0-1.91.036-2.65.072-1.79.012-1.8 1.128-1.93a.237.237 0 00.108-.21.135.135 0 00-.12-.15h-.012a15.816 15.816 0 01-1.667.08c-.912 0-1.667-.06-1.739-.06a.12.12 0 00-.12.14.272.272 0 00.108.22c.947.08 1.031.26 1.031 1.31v.61c0 .72-.012 1.87-.024 2.72v.11c0 2.15 1.056 3.71 3.466 3.71 2.135 0 3.418-1.22 3.442-3.73 0-1.08 0-1.74-.012-2.58v-.31c-.002-1.56.19-1.74.958-1.84zm12.535 6.13a.149.149 0 00.012-.06.23.23 0 00-.252-.18.152.152 0 00-.144.07 3.263 3.263 0 01-2.746 2.08c-1.967 0-3.694-1.43-3.694-4.18 0-2.73 1.691-4.02 3.334-4.02A2.934 2.934 0 0174.991 97a.144.144 0 00.156.09.194.194 0 00.216-.15v-.01c0-.45-.2-1.52-.216-1.85 0-.24-.048-.28-.239-.28h-.216c-.888 0-1.524-.23-2.639-.23a4.612 4.612 0 00-4.809 4.44c0 3.1 2.374 4.61 5 4.61a5.81 5.81 0 002.675-.66.407.407 0 00.239-.34 7.547 7.547 0 01.335-1.34zm13.86 1.8c-.948-.09-1.032-.25-1.056-1.87-.012-.6-.024-1.53-.024-2.47 0-.62.012-1.24.024-1.79.036-1.76.084-1.69 1.044-1.81a.243.243 0 00.1-.21.127.127 0 00-.108-.15h-.016a10.714 10.714 0 01-1.44.07c-.947 0-1.835-.06-1.847-.06h-.013a.132.132 0 00-.108.14.227.227 0 00.108.21c1.008.08 1.032.07 1.068 1.82 0 .47.012 1.31.012 1.43 0 .25 0 .25-2.171.25-.923 0-1.871-.01-2.4-.04a.183.183 0 01-.216-.21v-1.6c.024-1.59.1-1.57 1.032-1.65a.272.272 0 00.108-.22.123.123 0 00-.108-.14h-.012a11.866 11.866 0 01-1.5.07c-.948 0-1.8-.06-1.811-.06h-.012a.141.141 0 00-.108.16.243.243 0 00.108.2c1.127.06 1.055.37 1.091 1.67.012.42.012 1.3.012 2.19s0 1.76-.012 2.17c-.036 1.6-.048 1.8-1.055 1.9a.291.291 0 00-.108.23.12.12 0 00.12.14h.024a7.781 7.781 0 011.427-.12 16.857 16.857 0 011.823.11.139.139 0 00.12-.16.249.249 0 00-.1-.2c-.948-.13-1.02-.16-1.032-1.95-.012-.45-.024-1.24-.024-1.84a.2.2 0 01.228-.22c.516-.02 1.583-.03 2.555-.03 1.919 0 2.015 0 2.015.25-.012.19-.012 1.33-.012 1.9-.024 1.6.024 1.78-1.032 1.89a.263.263 0 00-.12.21.14.14 0 00.132.16h.024a7.227 7.227 0 011.38-.11c.947 0 1.847.1 1.859.1a.139.139 0 00.12-.16.262.262 0 00-.091-.2zm8.067.01c-1.08-.12-1.02-.49-1.044-1.78-.012-.71-.024-1.67-.024-2.6 0-.67 0-1.33.024-1.86.036-1.35-.084-1.59 1.02-1.71a.218.218 0 00.12-.21.135.135 0 00-.12-.15h-.012a12.438 12.438 0 01-1.4.07c-.972 0-1.883-.07-1.883-.07a.137.137 0 00-.132.15.254.254 0 00.108.21c1.1.11 1.031.18 1.079 1.74.024.42.024 1.23.024 2.1s0 1.76-.024 2.33c-.036 1.34.084 1.66-1.031 1.78a.322.322 0 00-.108.23.114.114 0 00.108.13h.036a8.172 8.172 0 011.379-.08c.935 0 1.859.07 1.871.07a.13.13 0 00.12-.15.264.264 0 00-.114-.2zm12.441-7.96a.225.225 0 00.1-.2.137.137 0 00-.132-.15h-.012c-.371.03-.767.05-1.115.05-.708 0-1.271-.05-1.271-.05a.137.137 0 00-.132.15.254.254 0 00.108.21c.408.05.8.03.8.33a13.119 13.119 0 01-1.895 3.18.133.133 0 01-.1-.08c-.671-.95-1.295-2.11-1.775-2.89a.49.49 0 01-.072-.22c0-.26.5-.27.852-.32a.287.287 0 00.1-.22.123.123 0 00-.108-.14h-.012a10.387 10.387 0 01-1.391.07c-.948 0-1.8-.07-1.8-.07a.13.13 0 00-.132.15.273.273 0 00.1.22 1.233 1.233 0 011.175.74c.6.94 1.355 2.27 2.027 3.29a4.4 4.4 0 01.156 1.55c0 .31-.012.64-.024.86-.06 1.22.036 1.33-1.223 1.49a.282.282 0 00-.108.21.122.122 0 00.108.15h.032a10.551 10.551 0 011.475-.09c1.067 0 2.135.09 2.147.09a.136.136 0 00.131-.15.239.239 0 00-.119-.21c-1.308-.11-1.188-.27-1.212-1.48-.012-.17-.012-.77-.012-1.27a2.014 2.014 0 01.18-1.37c.828-1.12 1.691-2.6 2.183-3.26a1.287 1.287 0 01.969-.57zm11.657 7.95a1.312 1.312 0 01-1.055-.95 75.554 75.554 0 01-2.7-7.53.184.184 0 00-.144-.18.285.285 0 00-.168.12 1.968 1.968 0 01-.671.56.184.184 0 00-.108.18.126.126 0 00.012.07.731.731 0 01.036.17.126.126 0 01-.012.07c-.432 1.13-.9 2.49-1.32 3.71-1.115 3.19-1.295 3.66-2.182 3.79a.286.286 0 00-.108.22.139.139 0 00.144.15h.035a6.356 6.356 0 011.08-.08 13.345 13.345 0 011.391.08.137.137 0 00.132-.15.266.266 0 00-.12-.22c-.516-.08-.851-.14-.851-.53a1.181 1.181 0 01.024-.18c.06-.32.527-1.68.695-2.25a.313.313 0 01.36-.24c.372-.03.756-.04 1.127-.04 1.152 0 1.248.07 1.272.15a24.448 24.448 0 01.827 2.62c0 .3-.264.4-.743.47a.254.254 0 00-.12.22.118.118 0 00.108.14h.024a8.061 8.061 0 011.247-.08c.887 0 1.715.08 1.715.08a.165.165 0 00.168-.18.253.253 0 00-.096-.19zm-3.394-3.8a.1.1 0 01-.1.07c-.2.01-.612.01-1.02.01s-.791 0-.971-.01a.154.154 0 01-.132-.06 29.4 29.4 0 011.079-3.1.077.077 0 01.048.05c.254.64 1.094 2.98 1.094 3.04zm22.558 3.8a1.959 1.959 0 01-1.212-.73c-.983-1-2.47-2.92-3.37-3.95a.2.2 0 01-.036-.11.169.169 0 01.072-.14c.576-.45 1.847-1.64 2.879-2.42a3.757 3.757 0 011.247-.57.25.25 0 00.12-.21.151.151 0 00-.132-.17h-.024a7.221 7.221 0 01-1.163.07c-.732 0-1.4-.06-1.4-.06a.14.14 0 00-.132.16.281.281 0 00.108.2c.24.01.612.07.612.28a.393.393 0 01-.144.25c-2.854 2.85-3.13 2.86-3.19 2.86-.12 0-.12-.02-.12-1.14 0-2.06.012-2.13 1.007-2.26a.3.3 0 00.108-.22.118.118 0 00-.108-.14h-.024a9.5 9.5 0 01-1.379.07c-.923 0-1.823-.06-1.835-.06a.132.132 0 00-.12.16.249.249 0 00.1.2c1.044.1 1.032.24 1.056 1.61.012.42.012 1.47.012 2.54 0 .78 0 1.58-.012 2.13-.012 1.28 0 1.53-1.02 1.66a.286.286 0 00-.108.22.126.126 0 00.12.14h.024a7.119 7.119 0 011.319-.1c.924 0 1.859.09 1.871.09h.012a.139.139 0 00.12-.16.281.281 0 00-.108-.2c-.947-.12-1.007-.25-1.019-1.66-.012-.47-.012-1.8-.012-2.08a.232.232 0 01.18-.27c.108 0 .12.01 1.535 1.7 1.427 1.73 1.523 1.91 1.523 2.04 0 .18-.252.26-.552.27a.251.251 0 00-.119.21.129.129 0 00.119.15h.024a7.146 7.146 0 011.236-.09c.923 0 1.895.09 1.895.09h.012a.13.13 0 00.132-.15.278.278 0 00-.106-.21zm11.7-1.65v-.01a.257.257 0 00-.228-.17.14.14 0 00-.1.06c-.875 1.26-1.523 1.76-2.95 1.76a3.347 3.347 0 01-.468-.04c-1.127-.16-1.067-.56-1.115-1.52-.024-.39-.036-1.06-.036-1.61 0-.31.012-.59.012-.74s.024-.18.528-.18c.935 0 1.907.03 1.991 1.15a.15.15 0 00.179.12.17.17 0 00.192-.13v-.02s-.06-.74-.06-1.5a6.875 6.875 0 01.06-1.04v-.01a.163.163 0 00-.192-.13.156.156 0 00-.179.12c-.132.8-.6 1.08-1.883 1.08-.552 0-.636-.04-.636-.2a25.921 25.921 0 01.048-2.78c.036-.35.072-.47 1.055-.47 1.14 0 1.883.12 2.3 1.43a.133.133 0 00.132.07.186.186 0 00.192-.14c-.012-.41-.108-.98-.108-1.4 0-.06.012-.12.012-.18v-.05a.109.109 0 00-.132-.13c-.048 0-.108.01-.168.01-.192.01-2.027.05-3.586.05-.863 0-1.631-.02-2.027-.05h-.024a.118.118 0 00-.108.14.3.3 0 00.108.22c.732 0 .972.21 1.02.53a16.359 16.359 0 01.084 1.89c.012.65.012 1.32.012 1.99a27.52 27.52 0 01-.084 2.99c-.1.38-.216.48-.984.55a.266.266 0 00-.12.22.123.123 0 00.12.13h.024c.492-.04 1.319-.05 2.207-.05 1.775 0 3.79.05 3.79.05a.289.289 0 00.336-.16c.121-.35.628-1.33.784-1.85zm13.3-6.29a.262.262 0 00.09-.19.14.14 0 00-.13-.17h-.01a8.969 8.969 0 01-1.21.07c-.86 0-1.68-.07-1.68-.07a.137.137 0 00-.12.15.238.238 0 00.1.21c1.33.15 1.3.71 1.31 2.05 0 .33-.01 1.17-.01 2.05 0 .65.01 1.32.03 1.79v.04c0 .04 0 .06-.03.06a.146.146 0 01-.05-.03c-.67-.76-1.47-1.7-2.2-2.48a27.771 27.771 0 01-2.988-3.48c-.12-.24-.1-.35-.264-.35h-.024c-.228.02-.516.04-.792.04-.611 0-1.211-.05-1.211-.05a.142.142 0 00-.156.15.278.278 0 00.1.21 1.045 1.045 0 011.127.97c0 1.23.012 2.83.012 3.98 0 2.63-.048 2.88-1.1 3a.26.26 0 00-.084.2c0 .09.024.15.108.15h.017a7.287 7.287 0 011.175-.07c.864 0 1.691.08 1.691.08a.139.139 0 00.12-.16.262.262 0 00-.1-.2c-.947-.14-1.163-.2-1.271-1.73-.048-.73-.084-2.48-.084-3.9 0-.38.012-.74.012-1.04a.051.051 0 01.036-.06.049.049 0 01.036.03c.852 1.01 2.266 2.57 3.326 3.76a35.658 35.658 0 012.59 3.13.41.41 0 00.34.27h.03a.259.259 0 00.26-.3v-.06c-.11-1.12-.15-3.35-.15-4.84 0-.49 0-.91.01-1.16.059-1.5-.051-1.92 1.139-2.05zm7.99 7.95c-1.08-.12-1.02-.49-1.05-1.78-.01-.71-.02-1.67-.02-2.6 0-.67 0-1.33.02-1.86.04-1.35-.08-1.59 1.02-1.71a.209.209 0 00.12-.21.13.13 0 00-.12-.15h-.01a12.372 12.372 0 01-1.4.07c-.97 0-1.89-.07-1.89-.07a.137.137 0 00-.13.15.261.261 0 00.11.21c1.1.11 1.03.18 1.08 1.74.02.42.02 1.23.02 2.1s0 1.76-.02 2.33c-.04 1.34.08 1.66-1.03 1.78a.333.333 0 00-.11.23.116.116 0 00.11.13h.03a8.272 8.272 0 011.38-.08c.94 0 1.86.07 1.88.07a.131.131 0 00.12-.15.273.273 0 00-.115-.2zm12.65-1.81a.176.176 0 00.01-.06.227.227 0 00-.25-.18.142.142 0 00-.14.07 3.271 3.271 0 01-2.75 2.08c-1.97 0-3.69-1.43-3.69-4.18 0-2.73 1.69-4.02 3.33-4.02a2.934 2.934 0 012.99 2.01.135.135 0 00.15.09.2.2 0 00.22-.15v-.01c0-.45-.21-1.52-.22-1.85 0-.24-.05-.28-.24-.28h-.21c-.89 0-1.53-.23-2.64-.23a4.611 4.611 0 00-4.81 4.44c0 3.1 2.37 4.61 5 4.61a5.86 5.86 0 002.68-.66.4.4 0 00.23-.34 7.724 7.724 0 01.335-1.34zm13.86 1.8c-.95-.09-1.03-.25-1.06-1.87-.01-.6-.02-1.53-.02-2.47 0-.62.01-1.24.02-1.79.04-1.76.09-1.69 1.05-1.81a.243.243 0 00.09-.21.124.124 0 00-.1-.15h-.02a10.594 10.594 0 01-1.44.07c-.94 0-1.83-.06-1.84-.06h-.01a.133.133 0 00-.11.14.217.217 0 00.11.21c1 .08 1.03.07 1.06 1.82 0 .47.02 1.31.02 1.43 0 .25 0 .25-2.18.25-.92 0-1.87-.01-2.39-.04a.185.185 0 01-.22-.21v-1.6c.02-1.59.1-1.57 1.03-1.65a.279.279 0 00.11-.22.126.126 0 00-.11-.14h-.01a11.8 11.8 0 01-1.5.07c-.95 0-1.8-.06-1.81-.06h-.01a.142.142 0 00-.11.16.231.231 0 00.11.2c1.12.06 1.05.37 1.09 1.67.01.42.01 1.3.01 2.19s0 1.76-.01 2.17c-.04 1.6-.05 1.8-1.06 1.9a.29.29 0 00-.1.23.117.117 0 00.12.14h.02a7.791 7.791 0 011.43-.12 16.885 16.885 0 011.82.11.141.141 0 00.12-.16.232.232 0 00-.1-.2c-.94-.13-1.02-.16-1.03-1.95-.01-.45-.02-1.24-.02-1.84a.2.2 0 01.23-.22c.51-.02 1.58-.03 2.55-.03 1.92 0 2.02 0 2.02.25-.02.19-.02 1.33-.02 1.9-.02 1.6.03 1.78-1.03 1.89a.274.274 0 00-.12.21.141.141 0 00.13.16h.03a7.214 7.214 0 011.38-.11c.94 0 1.84.1 1.86.1a.141.141 0 00.12-.16.275.275 0 00-.105-.2zm8.07.01c-1.08-.12-1.02-.49-1.05-1.78-.01-.71-.02-1.67-.02-2.6 0-.67 0-1.33.02-1.86.04-1.35-.08-1.59 1.02-1.71a.209.209 0 00.12-.21.13.13 0 00-.12-.15h-.01a12.372 12.372 0 01-1.4.07c-.97 0-1.88-.07-1.88-.07a.139.139 0 00-.14.15.261.261 0 00.11.21c1.1.11 1.03.18 1.08 1.74.02.42.02 1.23.02 2.1s0 1.76-.02 2.33c-.04 1.34.08 1.66-1.03 1.78a.333.333 0 00-.11.23.116.116 0 00.11.13h.04a8.081 8.081 0 011.37-.08c.94 0 1.86.07 1.88.07a.131.131 0 00.12-.15.273.273 0 00-.115-.2z" fill-rule="evenodd"/></svg>