<svg xmlns="http://www.w3.org/2000/svg" width="278.905" height="44.78"><path data-name="staff/title.svg" d="M-.013 30.83l1.936 13.84h1.428a4.323 4.323 0 01.524-1.49 1.6 1.6 0 011.539-.7 23.9 23.9 0 013.761 1.14 19.22 19.22 0 006.3 1.15 14.307 14.307 0 009.855-3.43 10.963 10.963 0 003.856-8.54 10.447 10.447 0 00-2.167-6.6 29.751 29.751 0 00-7.558-6.06l-5.709-3.53a19.672 19.672 0 01-4.723-3.77 6.4 6.4 0 01-1.52-4.29 5.254 5.254 0 011.983-4.36 7.255 7.255 0 014.65-1.57 12 12 0 016.935 2.47q3.507 2.475 5.094 8.73h1.554L26.297-.02h-1.332a4.128 4.128 0 01-.714 1.62 2.046 2.046 0 01-1.667.57 22.485 22.485 0 01-3.57-1.09 16.683 16.683 0 00-5.348-1.1 11.711 11.711 0 00-8.665 3.27 11.113 11.113 0 00-3.269 8.19 9.934 9.934 0 002.762 6.79 19.932 19.932 0 003.994 3.21l5.544 3.46a40.779 40.779 0 016.272 4.47 7.681 7.681 0 012.28 5.52 6.916 6.916 0 01-2.265 5.5 7.93 7.93 0 01-5.372 1.96 12.1 12.1 0 01-9.6-4.54 23.346 23.346 0 01-3.866-6.98H-.011zm55.138-18.88h1.587c.655-3.49 1.634-5.76 2.935-6.79s3.75-1.56 7.348-1.56h3.65v32.5q0 4.2-1.016 5.24t-5.142 1.36v1.21h18.948V42.7q-3.967-.285-5.141-1.18c-.783-.6-1.175-2.15-1.175-4.66V3.6h3.618q5.649 0 7.411 1.57t2.9 6.78h1.556L92.254.9H55.508zm72.335 15.26l7.483-17.9 7.449 17.9h-14.929zm-.182 16.7V42.7a10.143 10.143 0 01-3.1-.57 2.293 2.293 0 01-1.332-2.27 7.235 7.235 0 01.491-2.23c.328-.93 1.336-3.53 3.025-7.78h17.13l2.6 6.25a18.346 18.346 0 01.888 2.53 7.85 7.85 0 01.318 1.67 1.75 1.75 0 01-.825 1.79 14.87 14.87 0 01-3.674.61v1.21h16.53V42.7a6.156 6.156 0 01-3.254-1.18 15.6 15.6 0 01-2.586-4.53L137.294.14H136l-13.542 31.9q-3.043 7.17-4.3 8.78a5.277 5.277 0 01-3.761 1.88v1.21h12.879zm54.634 0h18.19V42.7c-2.46-.19-4.05-.61-4.78-1.28s-1.1-2.18-1.1-4.56V22.64h9.43q4.125 0 5.27 1.23c.76.81 1.38 2.48 1.87 4.99h1.52V13.85h-1.52c-.46 2.51-1.08 4.17-1.84 4.99s-2.53 1.23-5.3 1.23h-9.43V5.57a2.959 2.959 0 01.37-1.75 2.225 2.225 0 011.67-.44h8.91q5.43 0 7.27 1.18c1.23.79 2.06 2.67 2.51 5.64h1.81l-.22-9.3h-34.63v1.21c2.41.17 3.97.61 4.66 1.32s1.05 2.21 1.05 4.52V36.1q0 4.2-.93 5.2-.945.99-4.78 1.4v1.21zm62.15 0h18.19V42.7c-2.46-.19-4.05-.61-4.78-1.28s-1.1-2.18-1.1-4.56V22.64h9.43q4.125 0 5.27 1.23c.76.81 1.38 2.48 1.87 4.99h1.52V13.85h-1.52c-.46 2.51-1.08 4.17-1.84 4.99s-2.53 1.23-5.3 1.23h-9.43V5.57a2.959 2.959 0 01.37-1.75 2.225 2.225 0 011.67-.44h8.91q5.43 0 7.27 1.18c1.23.79 2.06 2.67 2.51 5.64h1.81l-.22-9.3h-34.63v1.21c2.41.17 3.97.61 4.66 1.32s1.05 2.21 1.05 4.52V36.1q0 4.2-.93 5.2-.945.99-4.78 1.4v1.21z" fill-rule="evenodd"/></svg>